<?xml version="1.0" encoding="utf-8"?>
<!-- Generator: Adobe Illustrator 27.5.0, SVG Export Plug-In . SVG Version: 6.00 Build 0)  -->
<svg version="1.1" xmlns="http://www.w3.org/2000/svg" xmlns:xlink="http://www.w3.org/1999/xlink" x="0px" y="0px"
	 viewBox="0 0 500 500" style="enable-background:new 0 0 500 500;" xml:space="preserve">
<g id="Background_Complete">
	<g>
		<g>
			<rect x="416.779" y="398.494" style="fill:#EBEBEB;" width="33.122" height="0.25"/>
			<rect x="322.527" y="401.208" style="fill:#EBEBEB;" width="8.693" height="0.25"/>
			<rect x="396.586" y="389.208" style="fill:#EBEBEB;" width="19.192" height="0.25"/>
			<rect x="52.459" y="390.888" style="fill:#EBEBEB;" width="43.193" height="0.25"/>
			<rect x="104.556" y="390.888" style="fill:#EBEBEB;" width="6.333" height="0.25"/>
			<rect x="131.471" y="395.111" style="fill:#EBEBEB;" width="93.676" height="0.25"/>
			<path style="fill:#EBEBEB;" d="M237.014,337.8H43.915c-3.147,0-5.708-2.561-5.708-5.708V60.66c0-3.147,2.561-5.708,5.708-5.708
				h193.099c3.146,0,5.707,2.561,5.707,5.708v271.432C242.721,335.239,240.16,337.8,237.014,337.8z M43.915,55.203
				c-3.01,0-5.458,2.448-5.458,5.458v271.432c0,3.01,2.448,5.458,5.458,5.458h193.099c3.009,0,5.457-2.448,5.457-5.458V60.66
				c0-3.009-2.448-5.458-5.457-5.458H43.915z"/>
			<path style="fill:#EBEBEB;" d="M453.31,337.8H260.212c-3.147,0-5.707-2.561-5.707-5.708V60.66c0-3.147,2.561-5.708,5.707-5.708
				H453.31c3.148,0,5.708,2.561,5.708,5.708v271.432C459.019,335.239,456.458,337.8,453.31,337.8z M260.212,55.203
				c-3.009,0-5.457,2.448-5.457,5.458v271.432c0,3.01,2.448,5.458,5.457,5.458H453.31c3.01,0,5.458-2.448,5.458-5.458V60.66
				c0-3.009-2.448-5.458-5.458-5.458H260.212z"/>
			<rect y="382.398" style="fill:#EBEBEB;" width="500" height="0.25"/>
		</g>
		<g>
			<g>
				<polygon style="fill:#EBEBEB;" points="374.07,280.121 374.07,383.013 380.799,383.013 419.905,383.013 426.634,383.013 
					426.634,280.121 				"/>
				<polygon style="fill:#EBEBEB;" points="384.164,267.419 384.164,290.216 388.309,290.216 412.395,290.216 416.54,290.216 
					416.54,267.419 				"/>
				<rect x="377.435" y="283.486" style="fill:#FAFAFA;" width="6.73" height="6.73"/>
				<rect x="390.47" y="283.486" style="fill:#FAFAFA;" width="6.73" height="6.73"/>
				<rect x="403.505" y="283.486" style="fill:#FAFAFA;" width="6.73" height="6.73"/>
				<rect x="416.54" y="283.486" style="fill:#F0F0F0;" width="6.73" height="6.73"/>
				<rect x="377.435" y="295.714" style="fill:#F0F0F0;" width="6.73" height="6.73"/>
				<rect x="390.47" y="295.714" style="fill:#F0F0F0;" width="6.73" height="6.73"/>
				<rect x="403.505" y="295.714" style="fill:#FAFAFA;" width="6.73" height="6.73"/>
				<rect x="416.54" y="295.714" style="fill:#FAFAFA;" width="6.73" height="6.73"/>
				<rect x="377.435" y="307.941" style="fill:#F0F0F0;" width="6.73" height="6.73"/>
				<rect x="390.47" y="307.941" style="fill:#FAFAFA;" width="6.73" height="6.73"/>
				<rect x="403.505" y="307.941" style="fill:#FAFAFA;" width="6.73" height="6.73"/>
				<rect x="390.47" y="272.917" style="fill:#FAFAFA;" width="6.73" height="6.73"/>
				<rect x="403.505" y="272.917" style="fill:#F0F0F0;" width="6.73" height="6.73"/>
				<rect x="416.54" y="307.941" style="fill:#F0F0F0;" width="6.73" height="6.73"/>
				<rect x="377.435" y="320.169" style="fill:#FAFAFA;" width="6.73" height="6.73"/>
				<rect x="390.47" y="320.169" style="fill:#F0F0F0;" width="6.73" height="6.73"/>
				<rect x="403.505" y="320.169" style="fill:#F0F0F0;" width="6.73" height="6.73"/>
				<rect x="416.54" y="320.169" style="fill:#FAFAFA;" width="6.73" height="6.73"/>
				<rect x="377.435" y="332.397" style="fill:#F0F0F0;" width="6.73" height="6.73"/>
				<rect x="390.47" y="332.397" style="fill:#FAFAFA;" width="6.73" height="6.73"/>
				<rect x="403.505" y="332.397" style="fill:#FAFAFA;" width="6.73" height="6.73"/>
				<rect x="416.54" y="332.397" style="fill:#F0F0F0;" width="6.73" height="6.73"/>
				<rect x="377.435" y="344.624" style="fill:#F0F0F0;" width="6.73" height="6.73"/>
				<rect x="390.47" y="344.624" style="fill:#FAFAFA;" width="6.73" height="6.73"/>
				<rect x="403.505" y="344.624" style="fill:#F0F0F0;" width="6.73" height="6.73"/>
				<rect x="416.54" y="344.624" style="fill:#FAFAFA;" width="6.73" height="6.73"/>
				<rect x="377.435" y="356.852" style="fill:#FAFAFA;" width="6.73" height="6.73"/>
				<rect x="390.47" y="356.852" style="fill:#FAFAFA;" width="6.73" height="6.73"/>
				<rect x="403.505" y="356.852" style="fill:#F0F0F0;" width="6.73" height="6.73"/>
				<rect x="416.54" y="356.852" style="fill:#F0F0F0;" width="6.73" height="6.73"/>
				<rect x="377.435" y="369.08" style="fill:#F0F0F0;" width="6.73" height="6.73"/>
				<rect x="416.54" y="369.08" style="fill:#FAFAFA;" width="6.73" height="6.73"/>
				<polygon style="fill:#F5F5F5;" points="410.234,369.08 390.47,369.08 390.47,371.009 391.27,371.009 391.27,383.013 
					393.199,383.013 393.199,371.009 407.505,371.009 407.505,383.013 409.435,383.013 409.435,371.009 410.234,371.009 				"/>
				<rect x="393.199" y="371.009" style="fill:#E6E6E6;" width="7.153" height="12.004"/>
				<rect x="400.352" y="371.009" style="fill:#EBEBEB;" width="7.153" height="12.004"/>
			</g>
			<g>
				<g>
					<polygon style="fill:#F5F5F5;" points="66.946,280.121 66.946,383.013 73.675,383.013 112.781,383.013 119.511,383.013 
						119.511,280.121 					"/>
					<polygon style="fill:#E6E6E6;" points="70.311,283.486 70.311,295.714 70.311,299.078 70.311,302.443 77.04,302.443 
						77.04,299.078 77.04,295.714 77.04,283.486 					"/>
					<polygon style="fill:#F0F0F0;" points="83.346,283.486 83.346,295.714 83.346,299.078 83.346,302.443 90.076,302.443 
						90.076,299.078 90.076,295.714 90.076,283.486 					"/>
					<polygon style="fill:#E6E6E6;" points="96.381,283.486 96.381,295.714 96.381,299.078 96.381,302.443 103.111,302.443 
						103.111,299.078 103.111,295.714 103.111,283.486 					"/>
					<polygon style="fill:#F0F0F0;" points="109.416,283.486 109.416,295.714 109.416,300.914 109.416,302.443 116.146,302.443 
						116.146,300.914 116.146,295.714 116.146,283.486 					"/>
					<polygon style="fill:#F0F0F0;" points="70.311,307.941 70.311,320.169 70.311,323.534 70.311,326.899 77.04,326.899 
						77.04,323.534 77.04,320.169 77.04,307.941 					"/>
					<polygon style="fill:#F0F0F0;" points="83.346,307.941 83.346,320.169 83.346,324.914 83.346,326.899 90.076,326.899 
						90.076,324.914 90.076,320.169 90.076,307.941 					"/>
					<polygon style="fill:#E6E6E6;" points="96.381,307.941 96.381,320.169 96.381,323.534 96.381,326.899 103.111,326.899 
						103.111,323.534 103.111,320.169 103.111,307.941 					"/>
					<polygon style="fill:#F0F0F0;" points="109.416,307.941 109.416,320.169 109.416,323.534 109.416,326.899 116.146,326.899 
						116.146,323.534 116.146,320.169 116.146,307.941 					"/>
					<polygon style="fill:#E6E6E6;" points="70.311,332.397 70.311,344.624 70.311,347.989 70.311,351.354 77.04,351.354 
						77.04,347.989 77.04,344.624 77.04,332.397 					"/>
					<polygon style="fill:#F0F0F0;" points="83.346,332.397 83.346,344.624 83.346,347.989 83.346,351.354 90.076,351.354 
						90.076,347.989 90.076,344.624 90.076,332.397 					"/>
					<polygon style="fill:#F0F0F0;" points="96.381,332.397 96.381,344.624 96.381,347.989 96.381,351.354 103.111,351.354 
						103.111,347.989 103.111,344.624 103.111,332.397 					"/>
					<polygon style="fill:#E6E6E6;" points="109.416,332.397 109.416,344.624 109.416,349.273 109.416,351.354 116.146,351.354 
						116.146,349.273 116.146,344.624 116.146,332.397 					"/>
					<polygon style="fill:#F0F0F0;" points="112.781,356.852 109.416,356.852 103.111,356.852 96.381,356.852 90.076,356.852 
						83.346,356.852 70.311,356.852 70.311,363.582 83.346,363.582 90.076,363.582 96.381,363.582 103.111,363.582 109.416,363.582 
						112.781,363.582 116.146,363.582 116.146,356.852 					"/>
					<polygon style="fill:#EBEBEB;" points="103.111,369.08 83.346,369.08 83.346,371.009 84.146,371.009 84.146,383.013 
						86.075,383.013 86.075,371.009 100.381,371.009 100.381,383.013 102.311,383.013 102.311,371.009 103.111,371.009 					"/>
					<rect x="86.075" y="371.009" style="fill:#FAFAFA;" width="7.153" height="12.004"/>
					<rect x="93.228" y="371.009" style="fill:#F5F5F5;" width="7.153" height="12.004"/>
				</g>
				<g>
					<polygon style="fill:#E6E6E6;" points="119.511,326.899 119.511,383.013 126.24,383.013 165.346,383.013 172.075,383.013 
						172.075,326.899 					"/>
					<rect x="122.875" y="332.397" style="fill:#F0F0F0;" width="6.73" height="6.73"/>
					<rect x="135.911" y="332.397" style="fill:#F0F0F0;" width="6.73" height="6.73"/>
					<rect x="148.946" y="332.397" style="fill:#F0F0F0;" width="6.73" height="6.73"/>
					<rect x="161.981" y="332.397" style="fill:#F0F0F0;" width="6.73" height="6.73"/>
					<rect x="122.875" y="344.624" style="fill:#F0F0F0;" width="6.73" height="6.73"/>
					<rect x="135.911" y="344.624" style="fill:#F0F0F0;" width="6.73" height="6.73"/>
					<rect x="148.946" y="344.624" style="fill:#F0F0F0;" width="6.73" height="6.73"/>
					<rect x="161.981" y="344.624" style="fill:#F0F0F0;" width="6.73" height="6.73"/>
					<rect x="122.875" y="356.852" style="fill:#F0F0F0;" width="6.73" height="6.73"/>
					<rect x="135.911" y="356.852" style="fill:#F0F0F0;" width="6.73" height="6.73"/>
					<rect x="148.946" y="356.852" style="fill:#F0F0F0;" width="6.73" height="6.73"/>
					<rect x="161.981" y="356.852" style="fill:#F0F0F0;" width="6.73" height="6.73"/>
					<rect x="122.875" y="369.08" style="fill:#F0F0F0;" width="6.73" height="6.73"/>
					<rect x="161.981" y="369.08" style="fill:#F0F0F0;" width="6.73" height="6.73"/>
					<polygon style="fill:#F5F5F5;" points="155.675,369.08 135.911,369.08 135.911,371.009 136.711,371.009 136.711,383.013 
						138.64,383.013 138.64,371.009 152.946,371.009 152.946,383.013 154.875,383.013 154.875,371.009 155.675,371.009 					"/>
					<rect x="138.64" y="371.009" style="fill:#E6E6E6;" width="7.153" height="12.004"/>
					<rect x="145.793" y="371.009" style="fill:#EBEBEB;" width="7.153" height="12.004"/>
				</g>
			</g>
			<g>
				<polygon style="fill:#FAFAFA;" points="312.242,280.121 312.242,383.013 318.972,383.013 358.077,383.013 364.807,383.013 
					364.807,280.121 				"/>
				<polygon style="fill:#F0F0F0;" points="331.372,356.852 328.642,356.852 315.607,356.852 315.607,360.217 315.607,363.582 
					315.607,375.81 322.337,375.81 322.337,363.582 328.642,363.582 331.372,363.582 335.372,363.582 335.372,356.852 				"/>
				<polygon style="fill:#F0F0F0;" points="356.849,356.852 354.712,356.852 341.677,356.852 341.677,363.582 354.712,363.582 
					354.712,375.81 361.442,375.81 361.442,363.582 361.442,358.714 361.442,356.852 				"/>
				<polygon style="fill:#F5F5F5;" points="348.407,369.08 328.642,369.08 328.642,371.009 329.442,371.009 329.442,383.013 
					331.372,383.013 331.372,371.009 345.677,371.009 345.677,383.013 347.607,383.013 347.607,371.009 348.407,371.009 				"/>
				<rect x="331.372" y="371.009" style="fill:#EBEBEB;" width="7.153" height="12.004"/>
				<rect x="338.525" y="371.009" style="fill:#E0E0E0;" width="7.153" height="12.004"/>
				<rect x="315.607" y="283.486" style="fill:#F0F0F0;" width="19.765" height="18.957"/>
				<rect x="341.677" y="283.486" style="fill:#F0F0F0;" width="19.765" height="18.957"/>
				<rect x="315.607" y="307.941" style="fill:#F0F0F0;" width="19.765" height="18.958"/>
				<rect x="341.677" y="307.941" style="fill:#F0F0F0;" width="19.765" height="18.958"/>
				<rect x="315.607" y="332.397" style="fill:#F0F0F0;" width="19.765" height="18.958"/>
				<rect x="341.677" y="332.397" style="fill:#F0F0F0;" width="19.765" height="18.958"/>
			</g>
		</g>
		<g>
			<g>
				<path style="fill:#F0F0F0;" d="M125.769,255.689c-1.709,1.526-0.846,4.341,1.432,4.587c16.313,1.763,49.275,4.194,58.197-3.66
					c11.474-10.099-21.195-0.549-23.72-2.844c-2.524-2.295,6.433-7.381-0.605-7.253c-4.937,0.09-12.617,8.83-20.499,7.674
					c-6.425-0.942,2.142-5.608-3.825-5.608C131.589,248.584,129.222,252.605,125.769,255.689z"/>
				<path style="fill:#F5F5F5;" d="M157.158,253.083c-1.223,1.092-0.605,3.107,1.025,3.284c11.678,1.262,35.275,3.002,41.663-2.62
					c8.214-7.23-15.173-0.393-16.98-2.036c-1.807-1.643,4.605-5.284-0.433-5.192c-3.535,0.064-9.032,6.321-14.675,5.493
					c-4.6-0.675,1.533-4.015-2.738-4.015C161.324,247.997,159.63,250.875,157.158,253.083z"/>
			</g>
			<circle style="fill:#F0F0F0;" cx="274.276" cy="131.695" r="42"/>
			<path style="fill:#FAFAFA;" d="M267.186,144.373c-1.953,1.239-1.312,4.226,0.985,4.494c25.502,2.975,88.632,8.652,104.94-5.702
				c19.68-17.322-36.354-0.942-40.684-4.878c-4.33-3.936,11.033-12.66-1.037-12.44c-8.469,0.154-21.641,15.145-35.161,13.162
				c-11.021-1.616,3.674-9.619-6.56-9.619C279.124,129.389,275.379,139.175,267.186,144.373z"/>
			<path style="fill:#F5F5F5;" d="M331.939,80.99c-1.529,1.278-0.778,3.767,1.203,3.985c15.717,1.73,48.836,4.298,57.705-3.509
				c11.239-9.893-20.762-0.538-23.234-2.786c-2.473-2.248,6.301-7.23-0.592-7.105c-4.836,0.088-12.359,8.649-20.08,7.516
				c-6.294-0.923,2.098-5.493-3.746-5.493C337.894,73.599,335.602,77.929,331.939,80.99z"/>
		</g>
	</g>
</g>
<g id="Background_Simple" style="display:none;">
	<g style="display:inline;">
		<path style="fill:#407BFF;" d="M70.799,206.462l-0.305-0.799c-11.044-28.941,0.715-61.608,27.67-76.872l46.008-26.052
			c30.314-17.165,68.808-6.313,85.691,24.159l19.746,35.636c14.373,25.94,44.962,38.253,73.298,29.506h0
			c33.336-10.291,68.658,8.625,78.568,42.076l7.825,26.413c10.504,35.452-11.813,72.244-48.106,79.312l-91.968,17.908
			c-26.352,5.131-53.046-7.094-66.375-30.399l-15.482-27.07c-5.45-9.529-13.308-17.46-22.787-22.997l-66.847-39.053
			C85.398,231.02,75.894,219.812,70.799,206.462z"/>
		<path style="opacity:0.9;fill:#FFFFFF;" d="M70.799,206.462l-0.305-0.799c-11.044-28.941,0.715-61.608,27.67-76.872l46.008-26.052
			c30.314-17.165,68.808-6.313,85.691,24.159l19.746,35.636c14.373,25.94,44.962,38.253,73.298,29.506h0
			c33.336-10.291,68.658,8.625,78.568,42.076l7.825,26.413c10.504,35.452-11.813,72.244-48.106,79.312l-91.968,17.908
			c-26.352,5.131-53.046-7.094-66.375-30.399l-15.482-27.07c-5.45-9.529-13.308-17.46-22.787-22.997l-66.847-39.053
			C85.398,231.02,75.894,219.812,70.799,206.462z"/>
	</g>
</g>
<g id="Shadow">
	<ellipse id="_x3C_Path_x3E__1_" style="fill:#F5F5F5;" cx="245.178" cy="412.391" rx="193.889" ry="11.323"/>
</g>
<g id="Stairs">
	<g>
		<rect x="107.387" y="391.422" style="fill:#407BFF;" width="32.725" height="16.362"/>
		<rect x="107.387" y="391.422" style="opacity:0.3;fill:#FFFFFF;" width="32.725" height="16.362"/>
		
			<rect x="127.84" y="395.513" transform="matrix(-1.836970e-16 1 -1 -1.836970e-16 535.6248 263.5819)" style="opacity:0.2;" width="16.362" height="8.181"/>
	</g>
	<g>
		<rect x="172.837" y="358.697" style="fill:#407BFF;" width="32.725" height="49.088"/>
		<rect x="172.837" y="358.697" style="opacity:0.4;fill:#FFFFFF;" width="32.725" height="49.088"/>
		
			<rect x="176.928" y="379.15" transform="matrix(-1.836970e-16 1 -1 -1.836970e-16 584.7123 181.7695)" style="opacity:0.2;" width="49.088" height="8.181"/>
	</g>
	<g>
		<g>
			<rect x="238.287" y="325.972" style="fill:#407BFF;" width="32.725" height="81.813"/>
			<rect x="238.287" y="325.972" style="opacity:0.3;fill:#FFFFFF;" width="32.725" height="81.813"/>
		</g>
		
			<rect x="226.015" y="362.788" transform="matrix(-1.836970e-16 1 -1 -1.836970e-16 633.7997 99.9569)" style="opacity:0.2;" width="81.813" height="8.181"/>
	</g>
	<g>
		<rect x="303.737" y="276.885" style="fill:#407BFF;" width="32.725" height="130.9"/>
		<rect x="303.737" y="276.885" style="opacity:0.2;fill:#FFFFFF;" width="32.725" height="130.9"/>
		
			<rect x="266.921" y="338.244" transform="matrix(-1.836970e-16 1 -1 -1.836970e-16 674.706 9.9632)" style="opacity:0.2;" width="130.9" height="8.181"/>
	</g>
	<g>
		<rect x="369.187" y="211.435" style="fill:#407BFF;" width="32.725" height="196.35"/>
		
			<rect x="299.646" y="305.519" transform="matrix(-1.836970e-16 1 -1 -1.836970e-16 707.431 -88.2118)" style="opacity:0.2;" width="196.35" height="8.181"/>
	</g>
	<g>
		<g>
			<g>
				<polygon style="fill:#407BFF;" points="150.589,367.112 107.887,367.112 92.487,360.567 133.76,360.567 133.76,327.842 
					199.21,327.842 199.21,295.117 264.659,295.117 264.659,246.03 330.109,246.03 330.109,180.58 385.316,180.58 385.316,123.545 
					402.146,123.545 402.146,187.125 346.94,187.125 346.94,252.575 281.49,252.575 281.49,301.662 216.04,301.662 216.04,334.387 
					150.589,334.387 				"/>
			</g>
			<g style="opacity:0.4;">
				<polygon style="fill:#FFFFFF;" points="150.589,367.112 107.887,367.112 92.487,360.567 133.76,360.567 133.76,327.842 
					199.21,327.842 199.21,295.117 264.659,295.117 264.659,246.03 330.109,246.03 330.109,180.58 385.316,180.58 385.316,123.545 
					402.146,123.545 402.146,187.125 346.94,187.125 346.94,252.575 281.49,252.575 281.49,301.662 216.04,301.662 216.04,334.387 
					150.589,334.387 				"/>
			</g>
		</g>
		<g>
			<polygon style="fill:#407BFF;" points="385.316,180.58 385.316,123.545 402.146,123.545 402.146,187.125 			"/>
			<polygon style="fill:#407BFF;" points="330.109,246.03 330.109,180.58 346.94,187.125 346.94,252.575 			"/>
			<polygon style="fill:#407BFF;" points="264.659,295.117 264.659,246.03 281.49,252.575 281.49,301.662 			"/>
			<polygon style="fill:#407BFF;" points="199.21,327.842 199.21,295.117 216.04,301.662 216.04,334.387 			"/>
			<polygon style="fill:#407BFF;" points="133.76,360.567 133.76,327.842 150.589,334.387 150.589,367.112 			"/>
		</g>
		<polygon style="fill:#407BFF;" points="374.07,128.206 393.731,104.572 413.392,142.518 		"/>
	</g>
</g>
<g id="Character">
	<g>
		<g>
			<path style="fill:#263238;" d="M194.78,162.587c-1.114,2.234-2.614,5.635-3.688,9.57c-0.022,0.083-0.045,0.165-0.067,0.248
				c-0.133,0.5-0.403,1.641-0.416,1.699c-0.115,0.516-0.222,1.038-0.318,1.566c-0.005,0.026-0.198,1.181-0.271,1.739
				c-0.008,0.065-0.016,0.129-0.024,0.194c-0.143,1.135-0.249,3.542-0.25,3.591c-0.006,0.581,0.006,1.163,0.038,1.746
				c0.002,0.032,0.094,1.278,0.172,1.868c0,0.001,0,0.002,0,0.002l0.019,0.167c-0.008-0.055-0.012-0.111-0.019-0.166
				c1.523,9.528,2.948,10.773,4.11,14.309c3.421,10.41,6.077,43.408,6.077,43.408c-19.78,5.331-43.597,27.031-43.597,27.031
				l4.277,9.882c0,0,51.316-24.267,54.956-29.198c4.323-5.855,1.842-36.848,3.199-49.066c0.502-4.522,1.077-8.445,1.649-11.95
				l6.432-9.913L194.78,162.587z"/>
			<g>
				<path style="opacity:0.2;" d="M204.342,188.667l-3.833-4.083c0,0-7.117,5.913,18.013,27.688
					c0.034-4.348,0.14-8.237,0.457-11.094c0.042-0.372,0.086-0.717,0.128-1.081L204.342,188.667z"/>
				<polygon style="fill:#FFC3BD;" points="157.266,271.313 146.864,276.605 150.071,281.855 159.76,277.563 				"/>
				<g>
					<path style="fill:#407BFF;" d="M150.518,283.18c-0.027-0.065-0.013-0.14,0.036-0.19c0.05-0.05,0.126-0.063,0.19-0.033
						c0.114,0.054,2.688,1.286,3.094,2.447c0.079,0.215,0.071,0.451-0.022,0.66c-0.087,0.254-0.326,0.425-0.594,0.427
						c-0.479-0.024-1.131-0.683-1.634-1.409C151.177,284.48,150.818,283.844,150.518,283.18z M151.013,283.5
						c0.618,1.18,1.647,2.647,2.214,2.654c0.074,0.007,0.182-0.015,0.283-0.237c0.064-0.127,0.066-0.276,0.006-0.405
						c-0.035-0.103-0.085-0.2-0.149-0.288C152.699,284.506,151.9,283.921,151.013,283.5z"/>
					<path style="fill:#407BFF;" d="M150.475,283.101c-0.002-0.061,0.03-0.118,0.082-0.149c0.079-0.043,1.762-0.977,2.888-0.657
						c0.328,0.089,0.606,0.308,0.769,0.606c0.226,0.408,0.115,0.66-0.033,0.784c-0.571,0.579-2.809,0.052-3.602-0.432
						c-0.021-0.012-0.037-0.031-0.045-0.054C150.503,283.176,150.482,283.141,150.475,283.101z M153.888,282.992
						c-0.119-0.176-0.299-0.304-0.505-0.358c-0.805-0.087-1.617,0.075-2.327,0.464c0.929,0.428,2.557,0.662,2.928,0.352
						c0.028-0.035,0.117-0.121-0.034-0.384L153.888,282.992L153.888,282.992z"/>
					<path style="fill:#263238;" d="M150.923,282.018l-4.413-6.375c-0.166-0.24-0.477-0.333-0.748-0.224l-5.984,2.438
						c-0.533,0.212-0.792,0.816-0.58,1.348c0.027,0.068,0.062,0.134,0.103,0.195c1.631,2.271,3.171,4.227,5.148,7.091
						c2.336,3.378,1.339,2.8,4.03,6.809c1.624,2.414,4.646,0.97,4.078-0.137c-2.629-5.046-1.561-6.498-1.139-9.439
						C151.467,283.114,151.291,282.507,150.923,282.018z"/>
				</g>
				<polygon style="opacity:0.2;" points="155.625,272.148 151.728,274.13 154.549,279.871 157.766,278.446 				"/>
				<polygon style="fill:#407BFF;" points="156.517,266.276 152.114,268.841 157.629,281.489 162.747,280.067 				"/>
			</g>
		</g>
		<g>
			<g>
				<path style="fill:#263238;" d="M249.395,235.279c0,0-45.078-38.016-48.915-44.764c-3.837-6.748,6.427-15.996,6.427-15.996
					l11.435,1.601c0,0,48.165,43.705,46.193,52.452L249.395,235.279z"/>
			</g>
			<g>
				<g>
					<path style="fill:#263238;" d="M264.535,228.573c-1.263,8.878-20.297,51.575-20.297,51.575s-3.933-0.232-11.133-4.731
						c0,0,7.524-33.744,15.162-46.844H264.535z"/>
				</g>
				<polygon style="fill:#FFC3BD;" points="236.344,277.445 232.941,288.608 238.947,289.94 242.575,279.983 				"/>
				<g>
					<path style="fill:#407BFF;" d="M240.212,290.537c-0.066-0.026-0.11-0.088-0.112-0.158c-0.001-0.071,0.042-0.135,0.109-0.16
						c0.118-0.044,2.79-1.044,3.909-0.532c0.209,0.092,0.374,0.262,0.46,0.474c0.122,0.239,0.08,0.529-0.105,0.724
						c-0.35,0.328-1.277,0.341-2.148,0.199C241.606,290.964,240.899,290.781,240.212,290.537z M240.786,290.401
						c1.279,0.373,3.049,0.65,3.448,0.246c0.056-0.049,0.116-0.142,0.026-0.368c-0.048-0.134-0.154-0.239-0.288-0.285
						c-0.099-0.046-0.203-0.077-0.311-0.093C242.68,289.885,241.704,290.055,240.786,290.401z"/>
					<path style="fill:#407BFF;" d="M240.126,290.513c-0.045-0.041-0.064-0.103-0.05-0.162c0.024-0.087,0.518-1.947,1.53-2.536
						c0.292-0.175,0.642-0.223,0.971-0.134c0.45,0.12,0.555,0.375,0.542,0.568c0.021,0.813-1.911,2.059-2.809,2.295
						c-0.023,0.007-0.048,0.005-0.07-0.005C240.199,290.545,240.159,290.535,240.126,290.513z M242.414,287.978
						c-0.21-0.036-0.426,0.005-0.608,0.115c-0.621,0.519-1.068,1.217-1.28,1.998c0.952-0.373,2.25-1.383,2.285-1.865
						c-0.005-0.045-0.006-0.168-0.3-0.242L242.414,287.978L242.414,287.978z"/>
					<path style="fill:#263238;" d="M239.656,289.439l-7.653-1.243c-0.288-0.047-0.571,0.112-0.68,0.384l-2.395,6.002
						c-0.216,0.531,0.039,1.136,0.569,1.353c0.068,0.028,0.139,0.048,0.211,0.061c2.767,0.4,5.244,0.648,8.679,1.21
						c4.053,0.659,2.946,0.977,7.7,1.819c2.865,0.504,3.921-2.674,2.73-3.033c-5.458-1.606-5.764-3.383-7.589-5.727
						C240.823,289.807,240.263,289.512,239.656,289.439z"/>
				</g>
				<polygon style="opacity:0.2;" points="235.807,279.205 234.532,283.388 240.624,285.338 241.829,282.031 				"/>
				<polygon style="fill:#407BFF;" points="232.196,274.491 230.99,279.442 243.926,284.241 246.451,279.568 				"/>
			</g>
		</g>
		<g>
			<path style="fill:#FFC3BD;" d="M180.507,147.236l0.753-7.234l6.316,1.317l-2.145,7.337c0,0,2.125,3.399,1.962,6.411
				c-0.163,3.012-1.889,2.6-1.889,2.6s0.178,3.189-2.531,2.25c-2.71-0.938-6.213-2.328-5.621-4.969
				C177.944,152.308,179.507,149.329,180.507,147.236z"/>
			<path style="fill:#407BFF;" d="M226.541,116.785c-2.169-8.172-27.148-0.378-27.148-0.378s-12.196,3.935-15.391,6.894
				c-3.215,2.978-5.002,20.357-5.002,20.357l8.753,1.91l5.424-14.962C217.569,126.404,228.646,124.718,226.541,116.785z"/>
			<path style="fill:#FFFFFF;" d="M187.959,142.774c-0.277,0.314-0.757,0.345-1.072,0.068c-0.315-0.277-0.345-0.757-0.068-1.072
				c0.277-0.315,0.757-0.345,1.072-0.068C188.206,141.98,188.236,142.459,187.959,142.774z"/>
			<path style="opacity:0.1;" d="M220.234,121.727l0.056-7.72c0,0-5.252-0.895-13.237,14.153c3.587-0.677,6.687-1.331,9.295-2.024
				L220.234,121.727z"/>
		</g>
		<path style="fill:#BA4D3C;" d="M252.399,101.939l1.022,4.849c0,0-1.657,0.471-3.23-0.863L252.399,101.939z"/>
		<path style="fill:#263238;" d="M253.473,100.019c-0.042,0.506-0.339,0.896-0.671,0.869c-0.332-0.027-0.587-0.482-0.532-0.973
			c0.055-0.491,0.339-0.896,0.671-0.864C253.274,99.083,253.51,99.513,253.473,100.019z"/>
		<path style="fill:#FFC3BD;" d="M230.189,115.456c0,0,4.34,0.317,5.662-7.539c0,0,4.256-1.102,6.396,1.668
			c2.14,2.77-3.671,7.325-0.906,10.164C244.106,122.587,230.189,115.456,230.189,115.456z"/>
		<path style="opacity:0.2;" d="M239.333,112.343c0,0,0.646,1.66,1.831,3.208c0.404-0.977,0.922-1.972,1.251-2.919L239.333,112.343z
			"/>
		<path style="fill:#FFC3BD;" d="M234.064,96.371c-0.858,6.7-1.367,9.522,1.328,13.56c4.45,4.437,12.483,5.669,15.325-0.646
			c2.56-5.68,3.531-15.658-2.448-19.57c-4.263-2.787-9.977-1.59-12.764,2.672C234.722,93.585,234.229,94.949,234.064,96.371z"/>
		<path style="fill:#263238;" d="M251.327,97.318c0.067,0.059,0.159,0.082,0.246,0.061c0.645-0.188,1.342-0.055,1.872,0.359
			c0.108,0.098,0.274,0.091,0.373-0.015c0.097-0.11,0.089-0.277-0.018-0.377c-0.659-0.539-1.542-0.72-2.36-0.485
			c-0.143,0.036-0.229,0.181-0.193,0.324l0,0.001C251.262,97.237,251.289,97.283,251.327,97.318z"/>
		<path style="fill:#263238;" d="M247.258,102.605l2.378-0.136c0,0-1.166-2.685,1.133-5.642c2.299-2.957,7.964-4.533,3.372-9.66
			c-4.592-5.127-10.336-4.341-10.336-4.341l3.813,2.731c0,0-7.863-5.77-12.498,0.501c0,0,1.944-0.646,3.507,0.067
			c0,0-20.876,7.056-3.236,23.805c0,0,0.669-1.359,3.486,0.855c0,0,3.219-2.112,4.904-5.305
			C245.469,102.287,246.667,99.294,247.258,102.605z"/>
		<path style="fill:#FFC3BD;" d="M247.164,100.351c0.846,1.09,1.222,2.473,1.046,3.841c-0.247,1.814-2.053,2.011-3.391,0.914
			c-1.213-0.993-2.528-3.128-1.601-4.667C244.146,98.899,246.115,99.029,247.164,100.351z"/>
		<path style="fill:#263238;" d="M256.377,89.005c0,0,0.609,3.639-5.11,5.797C251.267,94.801,259.227,95.613,256.377,89.005z"/>
		<path style="fill:#407BFF;" d="M229.582,116.473l2.267-2.904c0,0,10.881,0.993,11.54,7.172L229.582,116.473z"/>
		<path style="opacity:0.5;fill:#FFFFFF;" d="M229.582,116.473l2.267-2.904c0,0,10.881,0.993,11.54,7.172L229.582,116.473z"/>
		<path style="fill:#407BFF;" d="M205.613,141.544c3.003-7.462,7.831-27.281,15.52-28.184c7.689-0.903,29.795,7.931,32.403,15.789
			c2.608,7.858-27.667,52.575-27.667,52.575l-32.126-17.691C193.743,164.032,203.24,147.441,205.613,141.544z"/>
		<path style="opacity:0.1;" d="M243.368,126.559c0,0-5.828,11.119,1.2,25.124c2.882-5.116,5.449-10.075,7.122-14.125l-2.47-5.842
			L243.368,126.559z"/>
		<g>
			<g>
				<path style="fill:#407BFF;" d="M211.189,142.294c4.205,0.624,8.815-0.618,12.554-2.441c4.278-2.085,7.452-5.221,10.592-8.723
					c2.803-3.126,6.563-6.693,10.937-7.275c9.919-1.321,12.039,14.501,11.001,21.402c-1.234,8.204-5.843,15.717-10.894,22.129
					c-3.004,3.814-6.309,7.511-9.966,10.719c-1.182,1.037,0.667,2.648,1.838,1.62c9.475-8.312,18.679-20.087,21.191-32.647
					c1.516-7.58-0.397-18.39-7.148-23.299c-6.114-4.445-12.864-0.339-17.331,4.16c-5.956,6-12.844,13.351-22.303,11.948
					C210.106,139.657,209.623,142.061,211.189,142.294L211.189,142.294z"/>
			</g>
			<g style="opacity:0.3;">
				<path d="M211.189,142.294c4.205,0.624,8.815-0.618,12.554-2.441c4.278-2.085,7.452-5.221,10.592-8.723
					c2.803-3.126,6.563-6.693,10.937-7.275c9.919-1.321,12.039,14.501,11.001,21.402c-1.234,8.204-5.843,15.717-10.894,22.129
					c-3.004,3.814-6.309,7.511-9.966,10.719c-1.182,1.037,0.667,2.648,1.838,1.62c9.475-8.312,18.679-20.087,21.191-32.647
					c1.516-7.58-0.397-18.39-7.148-23.299c-6.114-4.445-12.864-0.339-17.331,4.16c-5.956,6-12.844,13.351-22.303,11.948
					C210.106,139.657,209.623,142.061,211.189,142.294L211.189,142.294z"/>
			</g>
		</g>
		<g>
			<path style="fill:#FFC3BD;" d="M282.571,155.63l-6.748,2.294l-0.921-5.089l6.916-2.17c0,0,1.372-3.574,4.119-4.663
				c2.748-1.089,3.872,0.906,3.872,0.906s2.765-1.465,3.04,1.331c0.275,2.796,0.183,7.268-2.41,7.823
				C287.847,156.617,284.845,155.663,282.571,155.63z"/>
			<path style="fill:#407BFF;" d="M278.971,150.155l-14.238,2.243c-9.354-21.91-13.419-31.594-20.526-27.797
				c-7.457,3.984,5.774,25.242,5.774,25.242s6.282,11.532,9.612,14.38c0.156,0.133,0.484,0.4,0.681,0.453
				c4.229,1.147,20.182-6.535,20.182-6.535L278.971,150.155z"/>
			<path style="fill:#FFFFFF;" d="M278.969,157.939c-0.277,0.315-0.757,0.345-1.072,0.068c-0.315-0.277-0.345-0.757-0.068-1.072
				c0.277-0.315,0.757-0.345,1.072-0.068C279.216,157.144,279.246,157.624,278.969,157.939z"/>
		</g>
		<g>
			<path style="fill:#407BFF;" d="M210.926,191.572l-21.425-30.933c-1.756-2.536-1.125-6.016,1.411-7.772l17.844-12.359
				c1.472-1.02,3.492-0.653,4.511,0.819l24.093,34.786c1.02,1.472,0.653,3.492-0.819,4.511l-17.844,12.359
				C216.162,194.74,212.682,194.108,210.926,191.572z"/>
			<path style="opacity:0.3;fill:#FFFFFF;" d="M210.926,191.572l-21.425-30.933c-1.756-2.536-1.125-6.016,1.411-7.772l17.844-12.359
				c1.472-1.02,3.492-0.653,4.511,0.819l24.093,34.786c1.02,1.472,0.653,3.492-0.819,4.511l-17.844,12.359
				C216.162,194.74,212.682,194.108,210.926,191.572z"/>
			<path style="opacity:0.1;" d="M235.497,178.3l-24.972-36.055c-0.777-1.121-2.316-1.401-3.437-0.624l-0.745,0.516
				c-3.159,2.188-3.946,6.523-1.758,9.681l19.862,28.676c2.188,3.159,6.522,3.946,9.681,1.758l0.745-0.516
				C235.995,180.96,236.274,179.421,235.497,178.3z"/>
			<path style="fill:#407BFF;" d="M237.8,176.748l-24.972-36.055c-0.777-1.121-2.316-1.401-3.437-0.624l-0.745,0.516
				c-3.159,2.188-3.946,6.523-1.758,9.681l19.862,28.676c2.188,3.159,6.522,3.946,9.681,1.758l0.745-0.516
				C238.298,179.409,238.577,177.87,237.8,176.748z"/>
			<g>
				<path style="fill:#407BFF;" d="M237.8,176.748l-24.972-36.055c-0.777-1.121-2.316-1.401-3.437-0.624l-0.745,0.516
					c-3.159,2.188-3.946,6.523-1.758,9.681l19.862,28.676c2.188,3.159,6.522,3.946,9.681,1.758l0.745-0.516
					C238.298,179.409,238.577,177.87,237.8,176.748z"/>
				<path style="opacity:0.5;fill:#FFFFFF;" d="M237.8,176.748l-24.972-36.055c-0.777-1.121-2.316-1.401-3.437-0.624l-0.745,0.516
					c-3.159,2.188-3.946,6.523-1.758,9.681l19.862,28.676c2.188,3.159,6.522,3.946,9.681,1.758l0.745-0.516
					C238.298,179.409,238.577,177.87,237.8,176.748z"/>
			</g>
			<path style="fill:#407BFF;" d="M205.693,158.45l-0.438-0.632c-0.613-0.885-0.392-2.099,0.493-2.712l4.86-3.366
				c0.885-0.613,2.099-0.392,2.712,0.493l0.438,0.632c0.613,0.885,0.392,2.099-0.493,2.712l-4.86,3.366
				C207.52,159.555,206.306,159.335,205.693,158.45z"/>
			<path style="fill:#407BFF;" d="M219.142,177.867l-0.438-0.632c-0.613-0.885-0.392-2.099,0.493-2.712l4.86-3.366
				c0.885-0.613,2.099-0.392,2.712,0.493l0.438,0.632c0.613,0.885,0.393,2.099-0.493,2.712l-4.86,3.366
				C220.969,178.973,219.755,178.752,219.142,177.867z"/>
			<path style="opacity:0.3;" d="M205.693,158.45l-0.438-0.632c-0.613-0.885-0.392-2.099,0.493-2.712l4.86-3.366
				c0.885-0.613,2.099-0.392,2.712,0.493l0.438,0.632c0.613,0.885,0.392,2.099-0.493,2.712l-4.86,3.366
				C207.52,159.555,206.306,159.335,205.693,158.45z"/>
			<path style="opacity:0.3;" d="M219.142,177.867l-0.438-0.632c-0.613-0.885-0.392-2.099,0.493-2.712l4.86-3.366
				c0.885-0.613,2.099-0.392,2.712,0.493l0.438,0.632c0.613,0.885,0.393,2.099-0.493,2.712l-4.86,3.366
				C220.969,178.973,219.755,178.752,219.142,177.867z"/>
			<path style="opacity:0.2;" d="M190.66,162.312c0,0,8.335,13.733,15.493,9.681l-5.938,4.113L190.66,162.312z"/>
			<g>
				<g>
					<path style="fill:#407BFF;" d="M221.922,154.836c1.945-0.277,3.012-1.372,4.664-2.144c1.127-0.527-0.214-0.996,0.784-0.07
						c0.357,0.331,0.6,0.865,0.856,1.27c0.671,1.062,1.242,2.188,1.938,3.234c0.597,0.898,2.158,1.855,2.546,2.774
						c0.633,1.499-2.621,3.601-3.555,4.367c-1.13,0.926,0.162,2.814,1.301,1.879c1.627-1.335,4.857-3.476,4.743-5.958
						c-0.071-1.539-1.422-2.25-2.349-3.274c-1.749-1.932-2.453-5.373-4.774-6.76c-0.789-0.471-1.453-0.465-2.251-0.027
						c-0.906,0.497-1.329,1.485-2.37,1.941c-0.536,0.235-1.128,0.406-1.708,0.489C220.294,152.763,220.464,155.044,221.922,154.836
						L221.922,154.836z"/>
				</g>
				<g style="opacity:0.3;">
					<path d="M221.922,154.836c1.945-0.277,3.012-1.372,4.664-2.144c1.127-0.527-0.214-0.996,0.784-0.07
						c0.357,0.331,0.6,0.865,0.856,1.27c0.671,1.062,1.242,2.188,1.938,3.234c0.597,0.898,2.158,1.855,2.546,2.774
						c0.633,1.499-2.621,3.601-3.555,4.367c-1.13,0.926,0.162,2.814,1.301,1.879c1.627-1.335,4.857-3.476,4.743-5.958
						c-0.071-1.539-1.422-2.25-2.349-3.274c-1.749-1.932-2.453-5.373-4.774-6.76c-0.789-0.471-1.453-0.465-2.251-0.027
						c-0.906,0.497-1.329,1.485-2.37,1.941c-0.536,0.235-1.128,0.406-1.708,0.489C220.294,152.763,220.464,155.044,221.922,154.836
						L221.922,154.836z"/>
				</g>
			</g>
		</g>
	</g>
</g>
</svg>
