<svg xmlns="http://www.w3.org/2000/svg" xml:space="preserve" width="1500" height="91" data-id="lg_at4rhBy4Zi8tld5Hgk" data-version="1" viewBox="0 0 1500 91"><g data-padding="20"><g transform="translate(12.9 1.794)scale(.96057)"><path fill="#238ae4" d="M534.587-.179a45.679 45.679 0 1 0 0 91.358 45.679 45.679 0 1 0 0-91.358"/><rect width="458.072" height="74.58" x="139.871" y="-391.54" fill="none" rx="0" ry="0" transform="translate(451.47 399.78)"/><path fill="#238ae4" d="m617.867 66.33-8.58 7.13q-.66.66-2.04.66h-9.9q-3.04 0-3.04-3.04V28.31q0-1.65.92-2.44l8.52-7.19q.72-.6 2.11-.6h6.86q2.64 0 4.43 1.98l4.55 5.28 7.99-6.66q.72-.6 2.11-.6h9.9q3.03 0 3.03 3.04v42.77q0 1.65-.92 2.44l-8.58 7.13q-.66.66-2.05.66h-9.9q-3.03 0-3.03-3.04v-7.85l-1.45-1.78v2.44q0 1.65-.93 2.44m-12.01-.07h9.9q2.38 0 2.38-2.37V42.11l11.28 13.66v8.12q0 2.37 2.38 2.37h9.9q2.37 0 2.37-2.37V21.12q0-2.38-2.37-2.38h-9.9q-2.38 0-2.38 2.38v14.06l-12.8-14.65q-1.52-1.79-3.9-1.79h-6.86q-2.38 0-2.38 2.38v42.77q0 2.37 2.38 2.37m6.34-41.05 24.28 27.33V24.68h.66v35.64h-.66v-6.79l-24.94-27.99q-.2-.2-.33-.2-.14 0-.14.2v34.78h-.66V25.41q0-.79.8-.79.39 0 .99.59m72.06 48.91h-30.63q-3.03 0-3.03-3.04V28.31q0-1.65.92-2.44l8.52-7.19q.72-.6 2.11-.6h30.62q3.04 0 3.04 3.04v7.72q0 1.65-.93 2.44l-5.67 4.69q1.25.66 1.25 2.71v7.06q0 1.65-.92 2.44l-5.88 4.95h9.11q3.04 0 3.04 3.04v7.72q0 1.65-.93 2.44l-8.58 7.13q-.66.66-2.04.66m-22.11-7.86h30.62q2.38 0 2.38-2.37v-7.72q0-2.38-2.38-2.38h-18.21v-5.68h12.87q2.37 0 2.37-2.37v-7.06q0-2.38-2.37-2.38h-12.87v-5.08h18.21q2.38 0 2.38-2.38v-7.72q0-2.38-2.38-2.38h-30.62q-2.38 0-2.38 2.38v42.77q0 2.37 2.38 2.37m5.48-6.6h21.58v.66h-22.24V24.68h22.24v.66h-21.58v16.57h16.23v.66h-16.23Zm55.84 6.67-8.58 7.13q-.66.66-2.04.66h-10.04q-3.03 0-3.03-3.04v-7.06q0-2.18.23-3.53t.79-2.48q.56-1.12 1.62-2.5l5.08-6.8-5.08-6.8q-1.06-1.45-1.62-2.54t-.79-2.48q-.23-1.38-.23-3.49v-5.09q0-1.65.92-2.44l8.52-7.19q.72-.6 2.11-.6h10.16q3.04 0 3.04 3.04v4.82q0 .53.06 1.09.07.56.4 1.02l.73 1.06v-.8q0-1.65.92-2.44l8.51-7.19q.73-.6 2.12-.6h10.03q3.03 0 3.03 3.04v5.08q0 2.11-.23 3.5t-.79 2.47q-.56 1.09-1.62 2.55l-5.08 6.86 5.08 6.73q1.06 1.39 1.62 2.51t.79 2.47q.23 1.36.23 3.54v7.06q0 1.65-.92 2.44l-8.58 7.13q-.66.66-2.05.66h-10.03q-3.03 0-3.03-3.04v-6.8q0-.52-.07-1.05t-.4-1.06l-.85-1.19v2.91q0 1.65-.93 2.44m.27-2.44v-6.8q0-.59.06-1.22.07-.63.53-1.29l2.97-4.16q.4-.59.73-.85.33-.27.85-.27h.93q.53 0 .86.27.33.26.72.85l2.91 4.16q.46.66.52 1.29.07.63.07 1.22v6.8q0 2.37 2.38 2.37h10.03q2.37 0 2.37-2.37v-7.06q0-2.05-.19-3.34-.2-1.28-.73-2.37t-1.58-2.41l-5.35-7.13 5.35-7.26q.99-1.39 1.55-2.44.56-1.06.76-2.35.19-1.28.19-3.33v-5.08q0-2.38-2.37-2.38h-10.03q-2.38 0-2.38 2.38v4.55q0 .66-.07 1.39-.06.73-.52 1.39l-2.97 4.15q-.4.53-.73.83t-.86.3h-.79q-.53 0-.89-.3t-.69-.83l-2.91-4.15q-.46-.66-.53-1.39-.06-.73-.06-1.39v-4.55q0-2.38-2.38-2.38h-10.16q-2.38 0-2.38 2.38v5.08q0 2.05.2 3.33.2 1.29.76 2.35.56 1.05 1.55 2.44l5.35 7.19-5.35 7.2q-.99 1.32-1.52 2.41t-.76 2.37q-.23 1.29-.23 3.34v7.06q0 2.37 2.38 2.37h10.03q2.38 0 2.38-2.37m-7.07-6.54v2.97h-.66v-3.3q0-1.32.14-2.5.13-1.19.85-2.25l7.92-10.82-7.92-10.69q-.72-1.06-.85-2.35-.14-1.28-.14-2.74v-.99h.66v.99q0 1.39.14 2.64.13 1.26.79 2.18l7.92 10.69h7.85l7.66-10.69q.66-.92.79-2.18.13-1.25.13-2.64v-.99h.66v.99q0 1.46-.13 2.74-.13 1.29-.86 2.35l-7.79 10.82 7.79 10.69q.73 1.06.86 2.34.13 1.29.13 2.74v2.97h-.66v-2.97q0-1.38-.1-2.64-.1-1.25-.82-2.17l-7.72-10.7h-7.92l-7.79 10.7q-.66.85-.79 2.14-.14 1.29-.14 2.67m61.04 16.77h-10.69q-3.03 0-3.03-3.04V39.34h-9.05q-3.03 0-3.03-3.04v-7.99q0-1.65.92-2.44l8.52-7.19q.72-.6 2.11-.6h34.85q3.03 0 3.03 3.04v7.99q0 1.65-.92 2.44l-8.58 7.13q-.66.66-2.05.66h-.53v24.55q0 1.65-.92 2.44l-8.58 7.13q-.66.66-2.05.66m-2.17-7.86h10.69q2.37 0 2.37-2.37V31.48h9.71q2.37 0 2.37-2.37v-7.99q0-2.38-2.37-2.38h-34.85q-2.38 0-2.38 2.38v7.99q0 2.37 2.38 2.37h9.7v32.41q0 2.37 2.38 2.37m5.67-5.94h-.66V25.34h-13.53v-.66h27.72v.66h-13.53Zm67.6 6.01-8.58 7.13q-.66.66-2.05.66h-9.83q-3.04 0-3.04-3.04V28.31q0-1.65.92-2.44l8.52-7.19q.72-.6 2.11-.6h10.63q1.25 0 2.08.5.82.49 1.55 1.81l4.48 8.25.6-1.05q.53-.99 1.19-1.59l8.51-7.12q.53-.4 1.09-.6t1.35-.2h10.69q3.04 0 3.04 3.04v42.77q0 1.65-.92 2.44l-8.58 7.13q-.66.66-2.05.66h-10.16q-1.65 0-2.35-.73-.69-.72-.69-2.31V53.66l-3.89 3.23q-1.13.93-2.84.93h-.86v6.07q0 1.65-.92 2.44m-11.95-.07h9.83q2.38 0 2.38-2.37V40.66l3.89 7.19q1.13 2.11 3.5 2.11h2.64q2.38 0 3.5-2.11l3.89-7.19v23.23q0 2.37 2.38 2.37h10.16q2.38 0 2.38-2.37V21.12q0-2.38-2.38-2.38h-10.69q-1.98 0-3.03 1.98l-5.88 10.76q-.33.6-.56.86t-.63.26h-.59q-.4 0-.63-.26t-.56-.86l-5.94-10.76q-1.05-1.98-3.03-1.98h-10.63q-2.38 0-2.38 2.38v42.77q0 2.37 2.38 2.37m20.86-25.41q1.18 0 1.71-.52.53-.53 1.65-2.25l8.05-12.27q.4-.66.9-.9.49-.23 1.02-.23h1.12q1.78 0 1.78 2.05v33.59h-.66V26.73q0-.53-.2-.96-.19-.43-.92-.43h-.99q-.46 0-.79.14-.33.13-.73.79l-8.05 12.14q-1.19 1.78-1.82 2.44-.62.66-2.07.66-1.46 0-2.08-.66-.63-.66-1.82-2.44l-8.05-12.14q-.4-.66-.76-.79-.36-.14-.82-.14h-.99q-.66 0-.86.43t-.2.96v33.59h-.66V26.73q0-2.05 1.72-2.05h1.12q.53 0 1.05.23.53.24.93.9l8.05 12.27q1.12 1.72 1.65 2.25.53.52 1.72.52m76.36 22.97-8.52 7.13q-2.31 1.98-6.43 3.07-4.13 1.09-10.73 1.09-6.46 0-10.62-1.32t-6.47-3.6-3.2-5.18-.89-6.01V38.48q0-3.1.86-5.68.85-2.57 3.1-4.42l8.58-7.13q2.31-1.98 6.43-3.07 4.13-1.09 10.73-1.09 6.47 0 10.62 1.03 4.16 1.02 6.44 2.93 2.28 1.92 3.17 4.52.89 2.61.89 5.71v22.51q0 3.04-.86 5.58t-3.1 4.45m3.3-10.03V31.28q0-3.03-.89-5.51-.89-2.47-3.14-4.25-2.24-1.79-6.24-2.78-3.99-.99-10.19-.99-6.21 0-10.2.99t-6.24 2.78q-2.24 1.78-3.16 4.25-.93 2.48-.93 5.51v22.51q0 3.04.93 5.51.92 2.48 3.16 4.26 2.25 1.78 6.24 2.74 3.99.95 10.2.95 6.2 0 10.19-.95 4-.96 6.24-2.74 2.25-1.78 3.14-4.26.89-2.47.89-5.51m-20.59 7.39q-5.15 0-8.06-1.12-2.9-1.12-4.06-3.14-1.15-2.01-1.15-4.65V32.8q0-2.7 1.15-4.68 1.16-1.98 4.06-3.11 2.91-1.12 8.06-1.12 5.21 0 8.11 1.12 2.91 1.13 4.1 3.11 1.18 1.98 1.18 4.68v19.47q0 2.64-1.18 4.65-1.19 2.02-4.1 3.14-2.9 1.12-8.11 1.12m0-.66q4.95 0 7.72-1.02t3.89-2.91q1.12-1.88 1.12-4.32V32.8q0-2.51-1.12-4.35-1.12-1.85-3.89-2.88-2.77-1.02-7.72-1.02-4.89 0-7.66 1.02-2.77 1.03-3.86 2.88-1.09 1.84-1.09 4.35v19.47q0 2.44 1.09 4.32 1.09 1.89 3.86 2.91t7.66 1.02m-5.42-9.11V33.66q0-1.32.99-2.18t4.56-.86q3.63 0 4.58.86.96.86.96 2.18v17.75q0 1.32-.96 2.21-.95.9-4.58.9-3.57 0-4.56-.9-.99-.89-.99-2.21m.66-12.47v12.47q0 .66.27 1.16.26.49.99.82V40.85q0-.66-.27-1.15-.26-.5-.99-.76m59.93 35.18h-17.16q-1.52 0-2.44-.56t-1.52-2.02l-6.47-16.17q-.79-2.04-1.28-3.4-.5-1.35-.7-2.73-.19-1.39-.19-3.5V28.31q0-1.65.92-2.44l8.51-7.19q.73-.6 2.12-.6h10.49q3.23 0 3.23 3.04v18.22q0 .66.14 1.22.13.56.33 1.28l.19.47v-14q0-1.65.93-2.44l8.51-7.19q.73-.6 2.11-.6h10.37q1.65 0 2.34.73t.69 2.31v17.42q0 2.12-.2 3.5-.19 1.39-.66 2.74-.46 1.35-1.32 3.4l-6.46 16.17q-.2.59-.53 1.02t-.66.76l-8.52 7.06q-.99.93-2.77.93m-8.64-7.86h17.16q1.32 0 2.11-.46t1.25-1.71l6.47-16.17q.79-1.98 1.25-3.3.47-1.32.66-2.68.2-1.35.2-3.4V21.12q0-2.38-2.37-2.38h-10.37q-2.37 0-2.37 2.38v18.15q0 .66-.13 1.32-.14.66-.4 1.39l-3.1 9.3q-.33 1.12-1.26 1.12h-.72q-.93 0-1.26-1.12l-3.1-9.24q-.26-.72-.39-1.38-.14-.66-.14-1.32V21.12q0-2.38-2.57-2.38h-10.49q-2.38 0-2.38 2.38v17.42q0 2.05.2 3.4.2 1.36.66 2.68t1.25 3.3l6.47 16.17q.53 1.25 1.32 1.71t2.05.46m-4.49-41.58h.66v14.26q0 3.56 1.05 6.14l4.36 10.56q.73 1.71 1.52 2.87.79 1.15 2.64 1.15h5.81q1.91 0 2.7-1.15.79-1.16 1.45-2.87l4.36-10.56q1.06-2.58 1.06-6.14V24.68h.66v14.26q0 1.85-.24 3.4-.23 1.55-.82 3l-4.36 10.56q-.79 1.92-1.75 3.17-.95 1.25-3.06 1.25h-5.81q-2.05 0-3.04-1.25t-1.78-3.17l-4.36-10.56q-.59-1.45-.82-3t-.23-3.4Zm72.8 49.44h-30.63q-3.03 0-3.03-3.04V28.31q0-1.65.92-2.44l8.51-7.19q.73-.6 2.12-.6h30.62q3.04 0 3.04 3.04v7.72q0 1.65-.93 2.44l-5.67 4.69q1.25.66 1.25 2.71v7.06q0 1.65-.92 2.44l-5.88 4.95h9.11q3.04 0 3.04 3.04v7.72q0 1.65-.93 2.44l-8.58 7.13q-.66.66-2.04.66m-22.11-7.86h30.62q2.38 0 2.38-2.37v-7.72q0-2.38-2.38-2.38h-18.22v-5.68h12.87q2.38 0 2.38-2.37v-7.06q0-2.38-2.38-2.38h-12.87v-5.08h18.22q2.38 0 2.38-2.38v-7.72q0-2.38-2.38-2.38h-30.62q-2.38 0-2.38 2.38v42.77q0 2.37 2.38 2.37m5.47-6.6h21.59v.66h-22.25V24.68h22.25v.66h-21.59v16.57h16.24v.66h-16.24Z"/><rect width="61.384" height="38.42" x="338.215" y="-373.46" fill="none" rx="0" ry="0" transform="translate(166.42 400.07)"/><path fill="#fff" d="m519.667 57.85-4.42 3.67q-.34.34-1.05.34h-5.1q-1.57 0-1.57-1.56V38.27q0-.85.48-1.26l4.39-3.71q.37-.3 1.08-.3h3.54q1.36 0 2.28 1.02l2.34 2.72 4.12-3.44q.37-.3 1.09-.3h5.1q1.56 0 1.56 1.56v22.03q0 .85-.48 1.26l-4.42 3.67q-.34.34-1.05.34h-5.1q-1.56 0-1.56-1.56v-4.05l-.75-.92v1.26q0 .85-.48 1.26m-6.19-.03h5.1q1.23 0 1.23-1.23V45.37l5.81 7.04v4.18q0 1.23 1.23 1.23h5.1q1.22 0 1.22-1.23V34.56q0-1.22-1.22-1.22h-5.1q-1.23 0-1.23 1.22v7.24l-6.59-7.55q-.79-.91-2.01-.91h-3.54q-1.22 0-1.22 1.22v22.03q0 1.23 1.22 1.23m3.27-21.15 12.51 14.07V36.4h.34v18.36h-.34v-3.51l-12.85-14.41q-.1-.1-.17-.1t-.07.1v17.92h-.34V36.77q0-.41.41-.41.2 0 .51.31m31.89 21.18-4.42 3.67q-.34.34-1.05.34h-5.07q-1.56 0-1.56-1.56V38.27q0-.85.47-1.26l4.39-3.71q.37-.3 1.09-.3h5.47q.65 0 1.07.25.43.26.8.94l2.31 4.25.31-.55q.27-.51.61-.81l4.39-3.68q.27-.2.56-.3t.69-.1h5.51q1.57 0 1.57 1.56v22.03q0 .85-.48 1.26l-4.42 3.67q-.34.34-1.05.34h-5.24q-.85 0-1.21-.37-.35-.38-.35-1.19v-8.98l-2.01 1.67q-.58.47-1.46.47h-.44v3.13q0 .85-.48 1.26m-6.15-.03h5.06q1.23 0 1.23-1.23V44.62l2 3.71q.58 1.09 1.8 1.09h1.36q1.23 0 1.81-1.09l2-3.71v11.97q0 1.23 1.23 1.23h5.23q1.23 0 1.23-1.23V34.56q0-1.22-1.23-1.22h-5.51q-1.02 0-1.56 1.02l-3.03 5.54q-.17.3-.28.44-.12.14-.33.14h-.3q-.21 0-.33-.14t-.29-.44l-3.06-5.54q-.54-1.02-1.56-1.02h-5.47q-1.23 0-1.23 1.22v22.03q0 1.23 1.23 1.23m10.74-13.09q.61 0 .88-.28.28-.27.85-1.15l4.15-6.33q.21-.34.46-.46.26-.11.53-.11h.58q.91 0 .91 1.05v17.31h-.34V37.45q0-.27-.1-.49t-.47-.22h-.51q-.24 0-.41.06-.17.07-.38.41l-4.14 6.26q-.62.92-.94 1.26t-1.07.34-1.07-.34-.94-1.26l-4.14-6.26q-.21-.34-.39-.41-.19-.06-.43-.06h-.51q-.34 0-.44.22t-.1.49v17.31h-.34V37.45q0-1.05.88-1.05h.58q.27 0 .54.11.27.12.48.46l4.15 6.33q.57.88.85 1.15.27.28.88.28"/></g><path fill="transparent" stroke="transparent" stroke-width=".996" d="M472.331.178h558.802v90.644H472.331z"/></g></svg>