<?xml version="1.0" encoding="utf-8"?>
<!-- Generator: Adobe Illustrator 27.5.0, SVG Export Plug-In . SVG Version: 6.00 Build 0)  -->
<svg version="1.1" id="_x2018_ëîé_x5F_1" xmlns="http://www.w3.org/2000/svg" xmlns:xlink="http://www.w3.org/1999/xlink"
	 x="0px" y="0px" viewBox="0 0 3200 2000" style="enable-background:new 0 0 3200 2000;" xml:space="preserve">
<rect style="fill:#FFFFFF;" width="3200" height="2000"/>
<g>
	<path style="fill:#94B2ED;" d="M2937.57,1819.397l-2553.906-0.873c0,0-347.379-438.3-177.603-889.514
		C316.72,634.894,731.823,473.735,966.089,634.894c99.774,68.645,419.884,2.314,590.806-281.863
		c75.244-125.107,192.938-204.66,327.523-243.013c4.132-1.181,8.275-2.314,12.442-3.412c4.191-1.109,8.394-2.172,12.607-3.211
		c113.291-27.623,237.111-27.08,356.895-0.885c8.712,1.912,17.412,3.954,26.076,6.126c123.007,30.905,240.57,88.973,336.649,171.465
		c8.523,7.307,16.881,14.815,25.05,22.512c164.665,155.126,256.199,387.468,183.033,681.419
		C2735.048,1394.343,3147.967,1409.252,2937.57,1819.397z"/>
	<path style="opacity:0.9;fill:#2B478B;" d="M2629.088,280.102v605.986H1896.86V106.606c4.191-1.109,8.394-2.172,12.607-3.211
		c0,0,0.013,0,0.023-0.012c91.499-22.299,189.881-26.23,287.447-13.115c23.22,3.117,46.393,7.201,69.424,12.242
		c8.712,1.912,17.412,3.954,26.076,6.126C2415.445,139.542,2533.009,197.609,2629.088,280.102z"/>
	<g>
		<g>
			<g>
				<path style="fill:#FCECDB;" d="M501.45,1260.015h-92.028v-32.503h92.323c7.178,0,12.996,5.818,12.996,12.996v6.216
					C514.741,1254.064,508.791,1260.015,501.45,1260.015z"/>
				<path style="fill:#699DEE;" d="M593.292,1240.885v4.89c0,2.612-0.703,5.06-1.932,7.162c-2.467,4.232-7.056,7.077-12.31,7.077
					H406.602c-1.141,0-2.066-0.924-2.066-2.063v-0.732c0-1.14,0.925-2.063,2.066-2.063h105.122c0.562-0.686,1.057-1.428,1.476-2.218
					c0.984-1.854,1.541-3.969,1.541-6.214v-6.216c0-1.143-0.148-2.252-0.426-3.308c-0.471-1.789-1.313-3.428-2.437-4.826H406.602
					c-1.141,0-2.066-0.925-2.066-2.065v-0.73c0-1.142,0.925-2.065,2.066-2.065h173.316c6.108,0,11.259,4.094,12.858,9.688
					C593.112,1238.37,593.292,1239.606,593.292,1240.885z"/>
				<path style="fill:#548EE2;" d="M592.776,1237.199h-78.461c-0.471-1.789-1.313-3.428-2.437-4.826H406.602
					c-1.141,0-2.066-0.925-2.066-2.065v-0.73c0-1.142,0.925-2.065,2.066-2.065h173.316
					C586.026,1227.512,591.177,1231.605,592.776,1237.199z"/>
			</g>
			<polygon style="fill:#F4D2B8;" points="409.422,1243.763 422.191,1244.31 409.422,1244.639 			"/>
			<polygon style="fill:#F4D2B8;" points="409.422,1248.863 439.8,1249.409 409.422,1249.738 			"/>
		</g>
		<g>
			<g>
				<g>
					<path style="fill:#2B478B;" d="M431.37,1285.228h97.967v-25.281h-98.762c-6.762,0-12.243,5.481-12.243,12.243l0,0
						C418.331,1279.391,424.169,1285.228,431.37,1285.228z"/>
					<path style="fill:#FCECDB;" d="M523.713,1285.228h111.496v-25.281H523.431c-6.875,0-12.448,5.573-12.448,12.448v0.103
						C510.982,1279.528,516.682,1285.228,523.713,1285.228z"/>
					<path style="fill:#2B478B;" d="M503.538,1285.228H639.08c1.044,0,1.891-0.847,1.891-1.891l0,0c0-1.044-0.847-1.891-1.891-1.891
						H503.538c-1.044,0-1.891,0.847-1.891,1.891l0,0C501.647,1284.381,502.493,1285.228,503.538,1285.228z"/>
					<path style="fill:#2B478B;" d="M503.538,1263.728H639.08c1.044,0,1.891-0.847,1.891-1.891l0,0c0-1.044-0.847-1.891-1.891-1.891
						H503.538c-1.044,0-1.891,0.847-1.891,1.891l0,0C501.647,1262.881,502.493,1263.728,503.538,1263.728z"/>
				</g>
				<polygon style="fill:#F4D2B8;" points="635.208,1272.587 620.147,1273.012 635.208,1273.268 				"/>
				<polygon style="fill:#F4D2B8;" points="635.208,1266.769 599.377,1267.193 635.208,1267.45 				"/>
			</g>
			<g>
				<path style="fill:#F99746;" d="M599.746,1267.109c0,0,1.536,1.086,2.044,2.872c0.09,0.312,0.148,0.646,0.159,0.998
					c0.085,2.373,0,7.741,0,7.741l4.534-2.684l4.521,2.684v-7.276c0-1.376-0.388-2.715-1.108-3.591
					c-0.349-0.425-0.773-0.744-1.252-0.744H599.746z"/>
				<path style="fill:#ED7D2B;" d="M599.746,1267.109c0,0,1.536,1.086,2.044,2.872l9.085,0.105c0,0-0.356-2.557-2.231-2.978H599.746
					z"/>
			</g>
		</g>
	</g>
	<g>
		<g>
			<path style="fill:#6683D3;" d="M1288.905,1814.837l0.71-0.016c5.8-0.126,10.279-5.717,9.733-12.148l-38.694-455.763
				l-33.765,3.554l55.562,458.212C1282.886,1812.258,1285.662,1814.907,1288.905,1814.837z"/>
		</g>
		<g>
			<path style="fill:#6683D3;" d="M916.313,1814.837l-0.709-0.016c-5.8-0.126-10.28-5.717-9.733-12.148l38.694-455.763l33.765,3.554
				l-55.562,458.212C922.333,1812.258,919.558,1814.907,916.313,1814.837z"/>
		</g>
		<g>
			<path style="fill:#6683D3;" d="M1561.89,1814.837l0.709-0.016c5.8-0.126,10.28-5.717,9.733-12.148l-38.694-455.763l-33.765,3.554
				l55.562,458.212C1555.87,1812.258,1558.646,1814.907,1561.89,1814.837z"/>
		</g>
		<path style="fill:#6683D3;" d="M927.837,1280.614l-68.685-400.031c-8.816-54.162,29.238-103.686,78.649-102.356l132.464,3.567
			c45.697,1.231,85.428,37.301,98.129,89.086l100.49,409.733H927.837z"/>
		<path style="fill:#6683D3;" d="M969.391,1280.614l-68.685-400.031c-8.816-54.162,29.238-103.686,78.649-102.356l132.464,3.567
			c45.697,1.231,85.429,37.301,98.129,89.086l100.49,409.733H969.391z"/>
		<path style="fill:#6683D3;" d="M948.628,1353.573h520.79c11.435,0,20.791-9.355,20.791-20.79v-31.379
			c0-11.435-9.356-20.79-20.791-20.79H927.837v52.169C927.837,1344.218,937.193,1353.573,948.628,1353.573z"/>
		<path style="fill:#6683D3;" d="M1194.245,1353.573h331.438c9.211,0,16.748-7.536,16.748-16.748v-39.463
			c0-9.212-7.537-16.748-16.748-16.748h-331.438c-9.211,0-16.748,7.536-16.748,16.748v39.463
			C1177.497,1346.037,1185.034,1353.573,1194.245,1353.573z"/>
	</g>
	<g>
		<g>
			<path style="fill:#6683D3;" d="M2413.661,1524.354c0,0-45.884-53.529-2.829-87.531c0,0,31.449-19.039,57.092-17.493
				c0,0-36.336,60.93-24.58,66.99c11.754,6.061,35.592-70.812,35.592-70.812s71.566-6.94,94.589,4.128
				c0,0-61.181,50.066-48.295,53.047c12.885,2.98,78.968-46.16,78.968-46.16s66.607,11.335,63.056,51.968
				s-26.502,53.18-36.59,52.099c-10.087-1.08-69.095-23.604-70.38-15.34c-1.285,8.266,34.234,35.276,59.106,36.54
				c0,0-46.96,51.789-78.169,36.843c-31.211-14.946-33.874-38.64-53.329-47.525s-36.063-8.863-28.03,0.199
				s43.242,17.87,54.367,37.551c11.126,19.68,21.108,32.953-11.182,28.094c-32.291-4.858-84.777-28.485-87.082-55.541
				C2413.661,1524.354,2413.661,1524.354,2413.661,1524.354z"/>
			<g>
				<path style="fill:#6683D3;" d="M2634.525,1479.588c0,0-180.912-6.973-220.864,44.767c0,0-8.836,26.463-36.024,50.56
					l-4.238,11.55c0,0,31.35-33.055,42.566-35.054C2415.965,1551.41,2398.423,1487.312,2634.525,1479.588z"/>
				<path style="fill:#6683D3;" d="M2377.637,1574.914c0,0-38.832,28.718-41.528,80.029l7.047,0.631
					c0,0,12.402-53.057,34.818-73.805S2377.637,1574.914,2377.637,1574.914z"/>
			</g>
		</g>
		<g>
			<path style="fill:#6683D3;" d="M2253.236,1457.035c0,0,72.989-40.873,38.928-96.345c0,0-27.249-34.062-56.444-42.82
				c0,0,15.571,82.721,0,84.667s-10.705-93.426-10.705-93.426s-76.882-36.98-107.05-34.062c0,0,47.686,80.774,32.115,78.828
				c-15.572-1.946-69.097-83.694-69.097-83.694s-78.828-14.598-91.479,32.115s7.785,70.069,19.464,72.989
				c11.679,2.919,86.613,1.946,84.667,11.678c-1.946,9.732-52.552,25.303-80.774,16.544c0,0,31.142,76.882,72.016,72.989
				s53.525-29.195,78.828-31.142c25.303-1.947,43.793,4.865,31.142,11.678s-55.472,2.232-75.908,19.607
				c-20.437,17.374-36.98,28.079,0.974,35.864s106.077,2.919,119.701-26.276S2253.236,1457.035,2253.236,1457.035z"/>
			<g>
				<path style="fill:#6683D3;" d="M2025.512,1316.896c0,0,204.369,66.177,227.725,140.139c0,0-0.973,33.088,19.464,71.043v14.598
					c0,0-21.409-49.633-33.088-56.445C2239.612,1486.23,2285.352,1422.001,2025.512,1316.896z"/>
				<path style="fill:#6683D3;" d="M2272.7,1528.078c0,0,31.518,47.859,13.55,106.119l-8.108-2.178c0,0,7.87-64.169-8.619-96.443
					C2253.033,1503.304,2272.7,1528.078,2272.7,1528.078z"/>
			</g>
		</g>
		<g>
			<path style="fill:#6683D3;" d="M2369.356,1400.665c0,0-96.213-53.879-51.313-127.001c0,0,35.92-44.899,74.404-56.445
				c0,0-20.525,109.042,0,111.607s14.111-123.152,14.111-123.152s101.344-48.748,141.112-44.899c0,0-62.859,106.476-42.334,103.91
				c20.525-2.566,91.081-110.324,91.081-110.324s103.91-19.243,120.587,42.333s-10.263,92.365-25.656,96.213
				c-15.395,3.849-114.173,2.566-111.607,15.395s69.273,33.354,106.476,21.809c0,0-41.051,101.344-94.93,96.212
				c-53.879-5.131-70.556-38.484-103.91-41.051c-33.354-2.565-57.728,6.415-41.051,15.395c16.678,8.979,73.122,2.942,100.062,25.845
				c26.939,22.903,48.748,37.015-1.282,47.277c-50.031,10.263-139.83,3.848-157.789-34.637
				C2369.356,1400.665,2369.356,1400.665,2369.356,1400.665z"/>
			<g>
				<path style="fill:#6683D3;" d="M2669.54,1215.937c0,0-269.396,87.232-300.184,184.729c0,0,1.282,43.616-25.657,93.647v19.242
					c0,0,28.223-65.425,43.617-74.404C2387.316,1439.15,2327.022,1354.482,2669.54,1215.937z"/>
				<path style="fill:#6683D3;" d="M2343.699,1494.313c0,0-41.545,63.088-17.86,139.885l10.688-2.871
					c0,0-10.375-84.587,11.361-127.129C2369.624,1461.654,2343.699,1494.313,2343.699,1494.313z"/>
			</g>
		</g>
		<path style="fill:#6683D3;" d="M2366.114,1800.733c104.087,0,188.466-84.379,188.466-188.466h-376.932
			C2177.648,1716.354,2262.027,1800.733,2366.114,1800.733z"/>
		<path style="fill:#6683D3;" d="M2557.183,1810.323h-382.136l0,0c0-12.841,10.409-23.251,23.251-23.251h335.634
			C2546.772,1787.072,2557.183,1797.482,2557.183,1810.323L2557.183,1810.323z"/>
		<rect x="2171.451" y="1612.267" style="fill:#6683D3;" width="387.415" height="5.781"/>
	</g>
	<g>
		<path style="fill:#728FD6;" d="M866.796,1293.563v13.109c0,4.591-1.486,8.339-3.299,8.339H385.053
			c-1.813,0-3.299-3.748-3.299-8.339v-13.109c0-4.583,1.486-8.34,3.299-8.34h478.444
			C865.31,1285.223,866.796,1288.979,866.796,1293.563z"/>
		<path style="fill:#7A98E2;" d="M866.796,1293.563v13.109c0,4.591-1.364,8.339-3.028,8.339H483.935
			c-1.664,0-3.028-3.748-3.028-8.339v-13.109c0-4.583,1.364-8.34,3.028-8.34h379.832
			C865.432,1285.223,866.796,1288.979,866.796,1293.563z"/>
		<rect x="406.037" y="1315.015" style="fill:#6683D3;" width="339.665" height="495.078"/>
		<rect x="501.224" y="1315.015" style="fill:#7A98E2;" width="339.665" height="495.078"/>
		<g>
			<g>
				<path style="fill:#6683D3;" d="M822.642,1782.76H519.48V1329h303.162V1782.76z M522.753,1779.486h296.615v-447.213H522.753
					V1779.486z"/>
			</g>
			<g>
				<rect x="521.117" y="1479.107" style="fill:#6683D3;" width="299.888" height="3.273"/>
			</g>
			<g>
				<rect x="521.117" y="1632.139" style="fill:#6683D3;" width="299.888" height="3.273"/>
			</g>
			<path style="fill:#6683D3;" d="M701.79,1358.264h-55.648c-2.701,0-4.911-2.209-4.911-4.91l0,0c0-2.7,2.21-4.91,4.911-4.91h55.648
				c2.7,0,4.91,2.21,4.91,4.91l0,0C706.7,1356.055,704.49,1358.264,701.79,1358.264z"/>
			<path style="fill:#6683D3;" d="M701.79,1507.913h-55.648c-2.701,0-4.911-2.209-4.911-4.91l0,0c0-2.7,2.21-4.91,4.911-4.91h55.648
				c2.7,0,4.91,2.21,4.91,4.91l0,0C706.7,1505.704,704.49,1507.913,701.79,1507.913z"/>
			<path style="fill:#6683D3;" d="M701.79,1663.912h-55.648c-2.701,0-4.911-2.209-4.911-4.91l0,0c0-2.7,2.21-4.91,4.911-4.91h55.648
				c2.7,0,4.91,2.21,4.91,4.91l0,0C706.7,1661.703,704.49,1663.912,701.79,1663.912z"/>
		</g>
	</g>
	<g>
		<g>
			
				<rect x="520.188" y="1063.262" transform="matrix(-0.9873 -0.1586 0.1586 -0.9873 865.8024 2314.6609)" style="fill:#B5453C;" width="10.101" height="119.058"/>
			<polygon style="fill:#EFCBAB;" points="538.001,1043.32 539.665,1064.816 529.691,1063.215 			"/>
		</g>
		<g>
			
				<rect x="432.426" y="1073.061" transform="matrix(-0.9832 0.1826 -0.1826 -0.9832 1074.4357 2166.2383)" style="fill:#B5453C;" width="10.101" height="119.058"/>
			<polygon style="fill:#EFCBAB;" points="422.773,1053.455 431.568,1073.14 421.637,1074.985 			"/>
		</g>
		<g>
			
				<rect x="445.018" y="1038.728" transform="matrix(-0.9832 0.1827 -0.1827 -0.9832 1093.2257 2095.7927)" style="fill:#B5453C;" width="10.101" height="119.058"/>
			<polygon style="fill:#EFCBAB;" points="435.365,1019.122 444.16,1038.807 434.228,1040.652 			"/>
		</g>
		<g>
			
				<rect x="422.706" y="1112.844" transform="matrix(-1 -1.224647e-16 1.224647e-16 -1 924.9756 2340.3555)" style="fill:#ED7D2B;" width="79.564" height="114.668"/>
			
				<rect x="462.488" y="1112.844" transform="matrix(-1 -1.224647e-16 1.224647e-16 -1 1004.54 2340.3555)" style="fill:#F99746;" width="79.564" height="114.668"/>
		</g>
	</g>
	<g>
		<g>
			<path style="fill:#6683D3;" d="M2629.088,280.102v585.092h-719.62V103.396c-4.214,1.039-8.416,2.102-12.607,3.211
				c-4.167,1.098-8.311,2.231-12.442,3.412v801.12h769.72V302.613C2645.969,294.917,2637.611,287.409,2629.088,280.102z"/>
		</g>
		<path style="fill:#6683D3;" d="M2722.267,911.134h-911.811l0,0c0-25.065,20.318-45.383,45.383-45.383h821.045
			C2701.948,865.751,2722.267,886.069,2722.267,911.134L2722.267,911.134z"/>
		<path style="fill:#6683D3;" d="M2292.438,108.637v777.451h-26.076V102.51C2275.074,104.422,2283.774,106.465,2292.438,108.637z"/>
	</g>
	<path style="opacity:0.7;fill:#FFEDDC;" d="M1833.524,461.257c-0.59,0.614-488.161,565.229-488.161,565.229h565.184l82.522-422.542
		L1833.524,461.257z"/>
	<g>
		<g>
			<g>
				<g>
					<polygon style="fill:#163560;" points="2081.21,1003.104 2071.395,1003.104 2071.395,834.091 2171.811,577.864 
						1992.519,438.93 1998.529,431.171 2183.63,574.605 2081.21,835.946 					"/>
				</g>
				<path style="fill:#163560;" d="M1972.255,456.632L1972.255,456.632c-4.511-3.198-5.575-9.448-2.377-13.958l14.935-21.063
					c3.197-4.511,9.447-5.575,13.958-2.376l0,0c4.511,3.198,5.574,9.447,2.377,13.958l-14.935,21.063
					C1983.016,458.767,1976.766,459.831,1972.255,456.632z"/>
				<path style="fill:#163560;" d="M2162.488,574.917c0-7.177,5.818-12.996,12.996-12.996s12.996,5.818,12.996,12.996
					c0,7.178-5.818,12.996-12.996,12.996S2162.488,582.094,2162.488,574.917z"/>
			</g>
			<g>
				<path style="fill:#163560;" d="M2123.955,1026.348h-98.766v-9.972c0-10.02,8.123-18.142,18.143-18.142h61.751
					c10.423,0,18.872,8.449,18.872,18.872V1026.348z"/>
				<rect x="2065.882" y="846.06" style="fill:#163560;" width="20.741" height="157.043"/>
			</g>
		</g>
		<g>
			<path style="fill:#F99746;" d="M1994.484,602.398c-0.469,0.523-0.938,1.047-1.419,1.536l-0.101,0.112
				c-0.457,0.511-0.915,0.999-1.387,1.475c-13.411,11.635-57.859-9.22-100.862-47.676c-42.99-38.444-68.675-80.307-58.605-94.93
				c0.422-0.521,0.854-1.031,1.312-1.542l0.101-0.112c0.433-0.534,0.9-1.057,1.369-1.581c39.415-44.075,107.093-47.84,151.155-8.437
				C2030.121,490.658,2033.898,558.323,1994.484,602.398z"/>
			<path style="fill:#F9DDBF;" d="M1993.069,603.945l-0.098,0.098c-0.147,0.196-0.295,0.368-0.442,0.54
				c-0.294,0.344-0.613,0.638-0.956,0.933c-13.398,11.631-57.86-9.202-100.852-47.677c-42.99-38.426-68.682-80.288-58.62-94.913
				c0.27-0.368,0.539-0.736,0.833-1.055c0.147-0.172,0.295-0.344,0.491-0.491l0.099-0.123c9.127-8.637,33.911-0.932,62.866,17.815
				c12.317,7.975,25.396,17.961,38.353,29.543c10.158,9.104,19.36,18.379,27.359,27.433
				C1988.187,565.666,2001.339,593.001,1993.069,603.945z"/>
			<path style="fill:#FFEDDC;" d="M1962.103,536.048c-7.582,6.257-17.323,9.987-27.948,9.987c-24.366,0-44.119-19.753-44.119-44.119
				c0-8.368,2.331-16.195,6.355-22.845c12.317,7.975,25.396,17.961,38.353,29.543
				C1944.901,517.719,1954.104,526.994,1962.103,536.048z"/>
		</g>
	</g>
	<g>
		<polygon style="fill:#2A4E96;" points="1965.268,976.628 1552.979,976.628 1580.588,693.18 1992.876,693.18 		"/>
		<polygon style="fill:#163560;" points="1980.18,976.628 1567.892,976.628 1595.5,693.18 2007.788,693.18 		"/>
		<polygon style="fill:#2A4E96;" points="1797.545,1019.651 1724.382,1019.651 1748.31,856.301 1821.473,856.301 		"/>
		<rect x="1681.396" y="1014.744" style="fill:#2A4E96;" width="150.199" height="11.771"/>
	</g>
	<path style="fill:#FFFFFF;" d="M2343.082,289.569c0-1.793,1.453-3.246,3.246-3.246s3.246,1.454,3.246,3.246
		c0,1.793-1.453,3.246-3.246,3.246S2343.082,291.362,2343.082,289.569z"/>
	<path style="fill:#FFFFFF;" d="M2159.242,296.061c0-1.793,1.453-3.247,3.246-3.247s3.247,1.454,3.247,3.247
		c0,1.793-1.454,3.246-3.247,3.246S2159.242,297.854,2159.242,296.061z"/>
	<path style="fill:#FFFFFF;" d="M2221.304,378.293c0-1.793,1.453-3.247,3.246-3.247s3.246,1.454,3.246,3.247
		c0,1.793-1.453,3.246-3.246,3.246S2221.304,380.086,2221.304,378.293z"/>
	<path style="fill:#FFFFFF;" d="M2396.498,232.906c0-1.793,1.453-3.246,3.246-3.246s3.246,1.453,3.246,3.246
		c0,1.793-1.453,3.246-3.246,3.246S2396.498,234.699,2396.498,232.906z"/>
	<path style="fill:#FFFFFF;" d="M2503.922,340.33c0-1.793,1.453-3.247,3.246-3.247s3.246,1.454,3.246,3.247
		c0,1.793-1.453,3.246-3.246,3.246S2503.922,342.122,2503.922,340.33z"/>
	<path style="fill:#FFFFFF;" d="M2421.651,546.036c0-1.793,1.453-3.246,3.246-3.246s3.247,1.454,3.247,3.246
		c0,1.793-1.454,3.246-3.247,3.246S2421.651,547.828,2421.651,546.036z"/>
	<path style="fill:#FFFFFF;" d="M2361.45,637.045c0-1.793,1.453-3.247,3.246-3.247s3.246,1.454,3.246,3.247
		c0,1.793-1.453,3.246-3.246,3.246S2361.45,638.838,2361.45,637.045z"/>
	<path style="fill:#FFFFFF;" d="M2552.973,519.61c0-1.793,1.453-3.246,3.246-3.246s3.246,1.453,3.246,3.246
		c0,1.793-1.453,3.246-3.246,3.246S2552.973,521.403,2552.973,519.61z"/>
	<g>
		<path style="fill:#163560;" d="M1415.215,1685.385c0,0-13.446-36.594-40.125-73.976c-8.48-11.882,22.429-18.888,29.512,2.361
			c7.083,21.248,24.79,80.862,24.79,80.862L1415.215,1685.385z"/>
		<path style="fill:#163560;" d="M1578.763,1766.839c0,0-40.954-70.186-82.711-50.638c-18.507,8.664-17.966,33.619,8.497,52.212
			c14.489,10.18,72.599,41.742,72.599,41.742L1578.763,1766.839z"/>
		<path style="fill:#FFB27D;" d="M1487.087,1585.866c0,0-18.658,49.955-14.697,68.483c3.96,18.527-5.432,51.077,2.154,67.14
			c7.586,16.062-7.953,29.796-20.954,35.709c-4.931,2.243-22.092-40.874-25.38-54.007s-14.005-40.312-24.992-61.355
			c-10.987-21.043-1.778-38.01,14.102-45.747s38.01-50.112,38.01-50.112L1487.087,1585.866z"/>
		<path style="fill:#163560;" d="M1399.688,575.257c-19.063-23.293-54.463-29.567-54.463-29.567
			c-69.741-58.584-130.147,24.754-142.096,55.327c-11.961,30.562-19.19,82.488-69.588,107.169
			c-89.521,43.842,7.696,118.742,7.696,118.742c40.595-89.606,229.917,70.22,221.231,77.331
			C1539.422,982.509,1443.039,628.23,1399.688,575.257z"/>
		<path style="fill:#E5925A;" d="M1240.079,843.842c0,0,32.92,59.193,79.074,108.312c24.377,25.945,52.461,49.083,81.322,59.169
			c14.084,4.922,28.351,6.744,42.472,4.266c9.004-1.567,5.092-54.757-7.425-95.188c-16.49-53.25-67.894-185.575-67.894-185.575
			l-29.408,12.541c0,0,40.794,166.654,35.934,167.359l-43.14-109.162L1240.079,843.842z"/>
		<path style="fill:#ED7D2B;" d="M1177.233,1113.865c0,0,316.029,18.645,358.893,47.782c71.345,48.497-31.09,446.798-31.09,446.798
			s-84.777,2.704-91.518-19.73c0,0,15.252-208.125,1.906-244.076s-5.115-85.778-5.115-85.778s-165.813,25.298-218.469,12.846
			S1177.233,1113.865,1177.233,1113.865z"/>
		<path style="fill:#FFB27D;" d="M1542.757,1663.378c0,0,17.977,50.204,32.957,61.805c14.98,11.6,33.277,43.172,49.436,50.549
			s18.516,11.255,12.398,24.161c-2.32,4.895-51.848,13.136-62.833,5.224c-10.986-7.912-11.931-23.718-59.922-44.864
			c-21.724-9.572-25.883-27.894-18.742-44.051s-3.292-62.811-3.292-62.811L1542.757,1663.378z"/>
		<path style="fill:#F99746;" d="M991.361,1102.195c0,0,435.214,80.322,465.181,114.935
			c29.967,34.612,102.432,466.012,102.432,466.012s-34.634,19.431-66.214,1.448c0,0-75.049-156.369-102.324-212.477
			c-41.317-84.995-23.896-131.896-30.471-133.395c-6.575-1.498-275.206-27.33-352.321-78.363
			C962.196,1230.279,991.361,1102.195,991.361,1102.195z"/>
		<path style="fill:#F9DDBF;" d="M1331.329,964.531c-13.296,13.748-7,19.977-7,25.809c0,22.275-3.164,27.525-18.262,35.482
			c-18.262,9.609-39.534,14.626-44.397,29.252c0,0.012,0,0.012-0.012,0.024c-1.003,3.033-1.311,6.492-0.732,10.482
			c10.979,75.586-59.732,115.273-98.275,132.898c-23.869,10.907-68.196,23.172-108.285,27.528
			c-44.61,4.863-83.98-0.071-84.05-27.528c-0.708-237.43,89.374-370.671,155.375-420.357c22.949-17.271,92.03-36.359,135.236-16.917
			c20.458,9.208,51.516,21.272,70.084,44.363c20.045,24.908,43.147,109.159,43.147,109.159
			C1366.602,959.101,1331.329,964.531,1331.329,964.531z"/>
		<path style="fill:#EAC3A2;" d="M1133.539,862.382c0.372,1.692-6.218,61.353,33.416,120.867
			c14.446,21.692-49.291,12.822-6.378,59.263c4.873-14.631,127.231-7.082,145.49-16.695l-81.342-70.955L1133.539,862.382z"/>
		<g>
			<path style="fill:#E5925A;" d="M1365.317,748.783c0,0,21.167-25.206,24.875-32.842c3.708-7.636-3.232-40.526-11.861-40.311
				c-5.443,0.136-12.142,20.057-18.091,27.3c-5.949,7.243-31.839,17.544-20.888,47.982
				C1340.585,754.34,1365.317,748.783,1365.317,748.783z"/>
		</g>
		<g>
			<path style="fill:#FFB27D;" d="M1311.511,799.193c5.97,8.96-1.319,34.064-35.161,26.248
				c-22.216-5.131-65.51-41.169-57.698-59.558c3.714-8.742,25.014-29.263,38.404-82.619l3.876,1.843l65.157,31.069
				c0,0-7.063,21.197-12.292,41.528C1309.399,774.775,1309.042,795.488,1311.511,799.193z"/>
			<path style="fill:#F4A269;" d="M1326.089,716.177c0,0-7.063,21.197-12.292,41.528c-38.123-10.864-49.495-51.063-52.865-72.598
				L1326.089,716.177z"/>
			<path style="fill:#FFB27D;" d="M1363.186,727.847c0,0-91.338,21.19-103.658-35.894c-12.321-57.083-32.408-92.793,25.388-108.737
				c57.796-15.943,73.866,3.386,82.612,21.439C1376.274,622.709,1386.627,720.863,1363.186,727.847z"/>
			<path style="fill:#163560;" d="M1326.363,572.856c0,0-0.578,65.694-48.954,97.58c-28.307,18.658-29.638,37.751-29.638,37.751
				s-16.761-56.211-19.425-98.496C1228.346,609.691,1300.587,545.038,1326.363,572.856z"/>
			<path style="fill:#163560;" d="M1320.614,584.46c0,0,26.996,8.979,39.005,18.918c17.785,14.718,22.422,62.585,20.302,74.502
				c0,0,4.845-83.192-21.934-104.386C1329.591,551.02,1320.614,584.46,1320.614,584.46z"/>
		</g>
		<path style="fill:#FFB27D;" d="M1133.529,862.361c9.296,22.166,20.051,43.006,31.462,61.891
			c43.589,72.062,96.889,115.603,116.138,95.309c5.323-5.614,18.763-13.768,4.715-43.942
			c-10.852-23.308-24.292-52.461-37.478-81.152c-27.184-59.157-53.263-116.345-53.263-116.345
			C1186.804,778.122,1099.479,781.16,1133.529,862.361z"/>
		<path style="fill:#FFB27D;" d="M1224.72,954.857c2.986-1.788,167.327,38.126,218.224,50.547
			c9.341,2.279,14.861,3.633,14.861,3.633v19.179c0,0-170.046,7.981-196.604-4.217c-26.558-12.197-51.912-40.582-51.912-40.582
			L1224.72,954.857z"/>
		<path style="fill:#F9DDBF;" d="M1133.529,862.361c9.296,22.166,20.051,43.006,31.462,61.891
			c35.508-4.606,68.295-21.193,83.375-29.785c-27.184-59.157-53.263-116.345-53.263-116.345
			C1186.804,778.122,1099.479,781.16,1133.529,862.361z"/>
		<path style="fill:#FFB27D;" d="M1442.944,1005.404c0,0,54.132-15.552,69.198-11.254c10.628,3.032,24.203,18.752,31.278,27.75
			c2.065,2.627,0.164,6.469-3.177,6.435c-9.058-0.093-23.707-0.688-31.376-4.716c-7.234-3.8-18.008,4.572-30.003,4.623
			c-9.215,0.04-21.059-0.026-21.059-0.026L1442.944,1005.404z"/>
		<path style="fill:#163560;" d="M1549.455,1783.577c0,0,25.694-34.642,58.157-41.135c0,0,53.152,24.396,57.874,67.713h-88.339
			L1549.455,1783.577z"/>
		<path style="fill:#163560;" d="M1415.215,1685.385c2.962-0.195,48.143-8.529,56.663,6.838
			c10.03,18.093,9.726,61.287-14.445,73.208c-5.553,2.739-12.265,0.021-14.434-5.779L1415.215,1685.385z"/>
		<path style="fill:#EAC3A2;" d="M1162.65,1198.479c-23.869,10.907-68.196,23.172-108.285,27.528
			c9.833-1.735,161.363-60.573,122.868-112.142c-31.859-42.679-44.546-67.492-5-73.808c14.319-2.29,72.648,12.229,89.423,15.04
			c-1.003,3.033-1.311,6.492-0.732,10.482C1271.904,1141.166,1201.193,1180.854,1162.65,1198.479z"/>
	</g>
	<path style="fill:#6683D3;" d="M1533.273,1026.515c0,0-14.166-18.277-37.185-15.647s-38.284,17.349-38.284,17.349
		L1533.273,1026.515z"/>
	<g>
		<path style="fill:#163560;" d="M2268.44,1071.187H1145.375c-10.227,0-18.517-8.29-18.517-18.517v-7.811
			c0-10.227,8.29-18.518,18.517-18.518H2268.44c10.227,0,18.517,8.291,18.517,18.518v7.811
			C2286.957,1062.896,2278.667,1071.187,2268.44,1071.187z"/>
		<g>
			<path style="fill:#163560;" d="M1138.366,1810.093L1138.366,1810.093c-6.352-0.784-9.347-6.728-8.544-12.937l96.743-748.392
				l26.666,1.554l-105.815,751.64C1146.583,1806.775,1143.325,1810.705,1138.366,1810.093z"/>
		</g>
		<g>
			<path style="fill:#163560;" d="M2262.034,1810.093L2262.034,1810.093c6.353-0.784,9.347-6.728,8.544-12.937l-96.743-748.392
				l-26.666,1.554l105.815,751.64C2253.817,1806.775,2257.075,1810.705,2262.034,1810.093z"/>
		</g>
	</g>
	<path style="fill:#FFB27D;" d="M1516.176,995.806l34.214,10.018c0,0-1.967,3.541-8.46,2.951c-6.493-0.59-20.855-2.755-20.855-2.755
		L1516.176,995.806z"/>
	<g>
		<g>
			<path style="fill:#2B478B;" d="M1810.986,1788.275l311.785-11.688c2.023-3.267,3.761-6.464,5.21-9.593
				c0,0-0.001-0.015,0.014-0.016c1.101-2.347,2.044-4.659,2.843-6.938c11.575-32.832-7.258-57.041-33.396-66.054
				c-30.369-10.463-54.186,11.879-54.186,11.879s-56.976-49.769-159.67-42.481c-59.806,4.244-89.169,46.449-103.265,80.962
				C1771.561,1765.801,1787.828,1789.144,1810.986,1788.275z"/>
			<path style="fill:#2B478B;" d="M2087.027,1691.577c0,0,14.906-19.512,35.254-18.341c0,0,7.392,16.643-8.708,38.516
				C2097.474,1733.626,2087.027,1691.577,2087.027,1691.577z"/>
			<path style="fill:#2B478B;" d="M2114.467,1729.106c0,0,20.58-13.393,39.36-5.475c0,0,1.391,18.157-21.105,33.375
				C2110.227,1772.226,2114.467,1729.106,2114.467,1729.106z"/>
			<path style="fill:#2E3552;" d="M1820.474,1758.451c0,0,30.39,12.058,65.561,2.438c37.168-10.165,132.138-20.011,146.655,19.074
				l-214.021,8.6L1820.474,1758.451z"/>
			<path style="fill:#2B478B;" d="M2101.564,1765.384l39.247,2.391c0,0,15.267-5.396,19.647-4.599
				c4.38,0.797,8.008,11.69,8.008,11.69l-61.626,2.311L2101.564,1765.384z"/>
			<path style="fill:#2B478B;" d="M1810.799,1752.749c0,0,26.877,20.589,64.286,12.66s114.959-8.963,126.151-0.529
				c0,0,10.594,5.313,3.642,13.309c-6.951,7.995-64.38,5.225-88.455,6.711c-17.598,1.086-107.265,8.878-120.613,0.193
				S1810.799,1752.749,1810.799,1752.749z"/>
			<path style="fill:#2E3552;" d="M2098.753,1741.953c0,0-8.673-9.621-10.114-7.392c-1.439,2.229-1.786,8.406,0.367,9.775
				C2091.158,1745.707,2100.879,1747.106,2098.753,1741.953z"/>
			<path style="fill:#2E3552;" d="M2088.289,1761.622c1.419,1.484,39.692,5.372,39.692,5.372s-0.001-0.015,0.014-0.016
				c1.101-2.347,2.044-4.659,2.843-6.938C2123.209,1767.361,2086.869,1760.123,2088.289,1761.622z"/>
			<path style="fill:#2E3552;" d="M2110.314,1702.206c0,0,9.305-3.249,7.67-21.074c0,0-16.057,3.019-20.938,8.52
				s0.134,3.89,5.06,6.35C2107.032,1698.462,2108.26,1705.426,2110.314,1702.206z"/>
			<path style="fill:#2E3552;" d="M2133.848,1744.84c0,0,9.85,0.356,14.808-16.844c0,0-16.055-3.025-22.603,0.324
				c-6.549,3.349-1.29,3.671,2.404,7.754C2132.151,1740.158,2130.764,1747.092,2133.848,1744.84z"/>
			<path style="fill:#FFFFFF;" d="M2083.709,1759.764c0,0-14.572-1.871-19.626-7.725c0,0,5.856,1.473,8.484,0.649
				c0,0-9.761-2.439-12.062-5.785c-2.301-3.345-3.854-6.115-6.89-3.258c-3.034,2.857-7.304,11.478-3.575,14.238
				C2053.771,1760.645,2083.709,1759.764,2083.709,1759.764z"/>
		</g>
		<path style="fill:#ED7D2B;" d="M1742.837,1809.962c0,0,2.772-41.553,57.011-46.214s135.375,12.102,178.035,10.412
			c42.659-1.69,170.381-5.262,190.584,0.706c20.204,5.968,42.788,12.25,40.279,35.457L1742.837,1809.962z"/>
	</g>
	<path style="fill:#2E3552;" d="M3058.59,1821.678H266.549c-2.189,0-3.98-1.792-3.98-3.981v-3.732c0-2.189,1.791-3.98,3.98-3.98
		H3058.59c2.189,0,3.98,1.791,3.98,3.98v3.732C3062.57,1819.886,3060.779,1821.678,3058.59,1821.678z"/>
	<path style="opacity:0.5;fill:#2E3552;" d="M2392.404,865.751c0,0-2.624-53.818,45.183-87.55
		c47.808-33.731,72.596-19.656,100.926-56.794c28.33-37.139,65.525-49.415,90.575-28.227v172.013L2392.404,865.751z"/>
	<path style="opacity:0.5;fill:#2E3552;" d="M2162.492,177.872c20.599,38.956,5.961,67.275-48.931,90.294
		c-54.893,23.02-56.663,19.478-88.371,65.67c-31.708,46.192-115.723,41.21-115.723,41.21V103.396c0,0,0.013,0,0.023-0.012
		c91.499-22.299,189.881-26.23,287.447-13.115C2217.349,176.798,2142.447,139.967,2162.492,177.872z"/>
	<path style="fill:#2C3A64;" d="M801.479,1206.395h-8.261c-0.001-0.002,0-0.005-0.001-0.007h-13.676c0,0.002,0,0.005,0,0.007
		h-78.982c-0.263,2.087-0.414,4.206-0.414,6.359v9.742c-6.728-1.411-16.014-2.562-20.787,0.385
		c-8.008,4.947-5.564,19.434,1.973,28.383c7.538,8.95,31.549,14.86,31.549,14.86l-0.005-0.01
		c4.816,5.466,10.793,9.872,17.517,12.886h-0.1v6.218h41.528V1279h-0.176c17.771-7.956,30.25-25.797,30.25-46.439v-19.807
		C801.894,1210.601,801.743,1208.481,801.479,1206.395z M684.688,1241.195c-3.227-8.337-1.045-11.417,2.561-12.072
		c4.034-0.731,9.538,2.06,13.022,6.831c0.393,5.908,1.802,11.547,4.062,16.744C698.685,1251.322,687.235,1247.778,684.688,1241.195z
		"/>
</g>
</svg>
